<svg height="512" viewBox="0 0 61 61" width="512" xmlns="http://www.w3.org/2000/svg"><g id="035---Curry"><path id="Shape" d="m57.45 30.5-3.22 3.81c-.2286838-.1129171-.4705473-.1968974-.72-.25-2.91-4.33-3.29-5.52-6.89-7.32l13.52-14.38c1.1634711-1.2585911 1.0938218-3.22006462-.1559883-4.39296331-1.2498101-1.1728987-3.2117517-1.11799515-4.3940117.12296331l-14.83 15.71-4.91-2.8c-3.4465832-1.9840616-7.7269947-1.8089538-11 .45-2.77 1.92-6 1.29-9.17 4.43s-2 1.74-6.27 8.15c-.58843798-.0496955-1.17935115.0608848-1.71.32l-3.14-3.85c-.53554437-.6679407-1.43683218-.9209372-2.24174381-.6292697-.80491163.2916674-1.33491342 1.0633052-1.31825619 1.9192697 0 1.77-.13 2.39.42 3.1l5.48 7c1.45248271 5.6185224 4.7484277 10.5870891 9.36 14.11h-3.64c-.8969819.0091553-1.6781498.6144188-1.9110194 1.4806937s.139528 1.7816367.9110194 2.2393063c1.35.81 1.93 1.28 2.95 1.28h32.89c1.06 0 1.63-.49 2.95-1.28.7714914-.4576696 1.143889-1.3730314.9110194-2.2393063s-1.0140375-1.4715384-1.9110194-1.4806937h-3.67c4.6060274-3.5152419 7.9014234-8.4724187 9.36-14.08l5.48-7c.51-.67.42-1.08.42-3.1.0244481-.8563204-.4991915-1.6331167-1.3021495-1.9316814-.8029579-.2985646-1.7068969-.0525863-2.2478505.6116814zm-.4-21c.4299975-.36583464 1.06506-.35443624 1.4816524.02659338.4165924.38102963.484463 1.01255792.1583476 1.47340662l-13.94 14.81-2.13-1.07zm-39.91 17.77c2.75-2.72 5.75-2 8.9-4.2 2.624421-1.8085894 6.0533253-1.9524324 8.82-.37 3.7036255 2.2387596 7.5222122 4.28157 11.44 6.12 2.27 1.13 3 2.55 4.75 5.18h-6.51c.0473639-.6245716-.2006128-1.2352606-.67-1.65l-1.87-1.76c-.7636988-.6840214-1.8858225-.7856631-2.76-.25l-1.6 1c-.9653897.5023062-1.3519833 1.6843049-.87 2.66h-14c.511047-.9544911.1697605-2.1423454-.77-2.68l-1.61-1c-.8702804-.5374193-1.9908982-.435545-2.75.25l-1.92 1.76c-.4823045.4176006-.7474624 1.0326196-.72 1.67h-3.14c3.35-5.06 2.38-3.86 5.28-6.73zm21.42 5.84s0-.06.07-.09l1.6-1c.1132532-.0705185.2567468-.0705185.37 0l2 1.82c0 .12.07.08-3.06.11zm-21.56.72 2-1.76c.1094333-.0712182.2505667-.0712182.36 0 1.81 1.09 1.7 1 1.64 1.13l-.9.83c-2.87-.03-3.17.08-3.1-.2zm-14-.18v-1.86l3.34 4c-.27218666.6048197-.3490863 1.2794393-.22 1.93zm45 25.21c-.34.21 1.9.14-33.41.14-.35 0-.4-.08-1.92-1h36.71zm-5.86-2.86h-22.28c-6.816704-4.0062147-11.22283213-11.1128729-11.78-19 0-.5522847.44771525-1 1-1h43.84c.5522847 0 1 .4477153 1 1-.5571679 7.8871271-4.963296 14.9937853-11.78 19zm16.86-22.34-3.14 4c.1436159-.6729802.0664676-1.374329-.22-2l3.36-4z"/><path id="Shape" d="m29 38h-16.4c-.6191913-.0010864-1.2039687.2846847-1.5835739.7738667-.3796051.4891819-.5112251 1.1266032-.3564261 1.7261333.8260276 3.388882 2.4358548 6.536608 4.7 9.19.2209126.3066843.5958613.4626109.9690976.4030101.3732364-.0596008.6809778-.3245438.795393-.6847754.1144151-.3602316.0159515-.7541917-.2544906-1.0182347-2.0579881-2.4255103-3.5202538-5.2986741-4.27-8.39h16.4c.5522847 0 1-.4477153 1-1s-.4477153-1-1-1z"/><path id="Shape" d="m30.35 31.31c.4375184.4956656 1.0854848.7525212 1.743779.6912386.6582941-.0612827 1.247714-.4333304 1.586221-1.0012386l1-1.61c.5374193-.8702804.435545-1.9908982-.25-2.75l-1.76-1.92c-.4419183-.4929187-1.092942-.7447342-1.7515306-.6774909-.6585886.0672432-1.2452874.4454328-1.5784694 1.0174909l-1 1.61c-.5374193.8702804-.435545 1.9908982.25 2.75zm-.35-3.63c1.1-1.8 1-1.7 1.13-1.64l1.8 1.96c.0712182.1094333.0712182.2505667 0 .36-1.06 1.75-.93 1.64-1.1 1.64l-1.76-2c-.0783631-.0867399-.1049903-.208464-.07-.32z"/><path id="Shape" d="m15 5.71c-1.2836024 1.40042881-1.9970058 3.23030874-2 5.13 0 2 1.56 4 3.18 5.25 1.33 1 2.17 2.05 2.15 2.84-.0254172.9779863.637317 1.8402356 1.5889256 2.0672691.9516087.2270336 1.9322319-.2431456 2.3510744-1.1272691.4965227-1.1097799.7456181-2.31431.73-3.53 0-1.76-1.6-3.34-2.95-4.34-1.0373965-.6683882-1.7144795-1.7723279-1.84-3 .0262145-.46429728.1310362-.92077849.31-1.35.2680967-.92515359-.1406908-1.91258083-.9842709-2.37750847-.84358-.46492764-1.8967195-.28322155-2.5357291.43750847zm3.87 7.88c1.32 1 2.15 2.05 2.15 2.75.0184735.9295882-.1693664 1.8517114-.55 2.7-.49.24.81-1.63-3.07-4.55-1.14-.84-2.4-2.35-2.4-3.65-.000172-1.43243896.5554947-2.8090584 1.55-3.84h.07c-.2446692.63989083-.3831597 1.31545426-.41 2 .0991653 1.8630167 1.0795118 3.5674827 2.64 4.59z"/><path id="Shape" d="m40.2 18.68c.548407-1.3208521.8206607-2.7399742.8-4.17 0-2-1.76-3.87-3.24-5.07-1.2405118-.88895049-2.026893-2.27883363-2.15-3.8.0372854-.59372107.1689358-1.17770882.39-1.73.3814162-1.02423696-.0469121-2.17317805-1.0057357-2.69777007-.9588237-.52459202-2.157378-.26575157-2.8142643.60777007-1.4148793 1.67838053-2.1874879 3.80482606-2.18 6 0 2.32 1.7 4.71 3.5 6.17 1 .85 2.54 2.3 2.5 3.64-.0695249 1.0612006.6299924 2.0202081 1.6617153 2.2781388 1.0317229.2579308 2.1002417-.2590677 2.5382847-1.2281388zm-5.44-6.21c-1.36-1.1-2.76-2.99-2.76-4.62-.0078404-1.74494977.6053922-3.43577044 1.73-4.77.0170408-.05379435.0596641-.0956271.113768-.11165789.054104-.01603079.1126364-.00417013.156232.03165789.0460227.01722194.0823419.05351585.0995959.09952653s.0137547.09723654-.0095959.14047347c-.264527.76430161-.4194003 1.5622357-.46 2.37.0885572 2.13926377 1.1444914 4.12235969 2.87 5.39 1.57 1.26 2.5 2.58 2.5 3.51.0236525 1.1556428-.1943354 2.3034856-.64 3.37-.0088685.0430123-.0361412.0799774-.074622.1011419-.0384808.0211644-.0843037.0244019-.125378.0088581-.6-.14.84-2.1-3.4-5.52z"/></g></svg>