<svg height="512" viewBox="0 0 58 59" width="512" xmlns="http://www.w3.org/2000/svg"><g id="035---Curry" fill="none" transform="translate(-1)"><path id="Shape" d="m43 26 15.41-16.32c.8035743-.85327994.7632799-2.19642569-.09-3s-2.1964257-.76327994-3 .09l-15.32 16.23z" fill="#547580"/><path id="Shape" d="m51.93 34-2.72-5c-.8794077-1.2780018-2.0702841-2.3105537-3.46-3-5.8-2.89-6-3-6.38-3.19l-5-2.89c-3.096052-1.7784381-6.9378483-1.6228998-9.88.4-3 2.09-6.07 1.38-9 4.32s-1.49.99-7.49 9.36z" fill="#e57e25"/><path id="Shape" d="m28.19 25.16 1-1.61c.168277-.3049413.4744433-.5088985.8206758-.5467055.3462326-.037807.6892012.0952677.9193242.3567055l1.76 1.92c.3834629.4331428.440213 1.0655017.14 1.56l-1 1.61c-.168277.3049413-.4744433.5088985-.8206758.5467055-.3462326.037807-.6892012-.0952677-.9193242-.3567055l-1.76-1.92c-.3834629-.4331428-.440213-1.0655017-.14-1.56z" fill="#f29c1f"/><path id="Shape" d="m15.83 33-.28-.17c-.3049413-.168277-.5088985-.4744433-.5467055-.8206758-.037807-.3462326.0952677-.6892012.3567055-.9193242l1.92-1.76c.4331428-.3834629 1.0655017-.440213 1.56-.14l1.61 1c.3049413.168277.5088985.4744433.5467055.8206758.037807.3462326-.0952677.6892012-.3567055.9193242l-1.19 1.07z" fill="#f29c1f"/><path id="Shape" d="m41.73 33 .27-.17c.3049413-.168277.5088985-.4744433.5467055-.8206758.037807-.3462326-.0952677-.6892012-.3567055-.9193242l-1.92-1.76c-.4331428-.3834629-1.0655017-.440213-1.56-.14l-1.6 1c-.3049413.168277-.5088985.4744433-.5467055.8206758-.037807.3462326.0952677.6892012.3567055.9193242l1.19 1.07z" fill="#f29c1f"/><g fill="#547580"><path id="Shape" d="m53.41 33.66 3.8-4.52c.2660406-.343626.7235583-.4760927 1.1320367-.3277626.4084784.1483302.6743972.5434973.6579633.9777626 0 2 .06 2.13-.21 2.48l-5.6 7.2z"/><path id="Shape" d="m6.58 33.67-3.79-4.53c-.26604059-.343626-.7235583-.4760927-1.13203669-.3277626-.40847838.1483302-.67439721.5434973-.65796331.9777626 0 2-.06 2.13.21 2.48l5.6 7.2z"/><path id="Shape" d="m46.46 58c-36 0-33.26.12-33.93-.28l-1.43-.86c-.3889353-.2307313-.5746179-.6937685-.4528582-1.1292937.1217598-.4355252.5206547-.7351321.9728582-.7307063h36.76c.4522035-.0044258.8510984.2951811.9728582.7307063.1217597.4355252-.0639229.8985624-.4528582 1.1292937l-1.43.86c-.3057905.1814569-.6544289.2781091-1.01.28z"/></g><path id="Shape" d="m18.59 55h22.82c7.2030293-4.1415519 11.8849902-11.583997 12.5-19.87.0359947-.5525748-.1587189-1.0953422-.5377636-1.4990248s-.9084917-.6321463-1.4622364-.6309752h-43.83c-.55374467-.0011711-1.0831917.2272926-1.4622364.6309752-.37904471.4036826-.57375832.94645-.5377636 1.4990248.61715862 8.287983 5.30313 15.7308489 12.51 19.87z" fill="#7f8c8d"/><path id="Shape" d="m20 55h20c6.09-3.91 10.37-11.27 11-19.87.0674709-.5194256-.0836418-1.0435582-.4172825-1.4473393-.3336408-.4037811-.8198861-.6509966-1.3427175-.6826607h-38.48c-.5228314.0316641-1.00907672.2788796-1.34271745.6826607s-.48475344.9279137-.41728255 1.4473393c.62 8.6 4.9 15.96 11 19.87z" fill="#95a5a5"/><path id="Shape" d="m15.12 48c-.2923118.0000192-.5699973-.1278622-.76-.35-2.2641452-2.653392-3.8739724-5.801118-4.7-9.19-.14035497-.593865-.00191018-1.2193158.3759599-1.6984706.3778701-.4791549.9538177-.7595831 1.5640401-.7615294h16.4c.5522847 0 1 .4477153 1 1s-.4477153 1-1 1h-16.4c.7497462 3.0913259 2.2120119 5.9644897 4.27 8.39.228294.2958845.2725504.6943748.1147405 1.03314-.1578098.3387652-.4913472.5612647-.8647405.57686z" fill="#ecf0f1"/><path id="Shape" d="m16.58 5.32c.1565972-.49011083-.0578074-1.02228318-.5104344-1.26694643-.452627-.24466324-1.0153025-.13253418-1.3395656.26694643-1.1222268 1.23693566-1.7395694 2.84987687-1.73 4.52 0 1.66 1.42 3.43 2.78 4.45 1.15.86 2.62 2.25 2.55 3.69.0251213.4749465.3607269.8763037.8237246.9851081.4629977.1088045.9422411-.1010632 1.1762754-.5151081.4521106-.9738489.6810156-2.036378.67-3.11 0-1.42-1.62-2.85-2.55-3.55-.6572441-.4544814-1.2096134-1.04435726-1.62-1.73-.7236671-1.11982244-.8181859-2.53382375-.25-3.74z" fill="#bdc3c7"/><path id="Shape" d="m34 1.59c.1220468-.51788725-.1115072-1.05430334-.5737609-1.31778795-.4622537-.26348461-1.0428157-.19111461-1.4262391.17778795-1.2865828 1.50941871-1.9953614 3.42666477-2 5.41 0 2 1.56 4.11 3.13 5.38 1.33 1.08 2.94 2.76 2.87 4.47-.0505073.5825305.3296769 1.1154464.8969348 1.2572609.5672578.1418145 1.1534985-.1494952 1.3830652-.6872609.4992431-1.1930184.7444531-2.4769653.72-3.77 0-1.72-1.82-3.44-2.87-4.29-.7490386-.56267651-1.3694983-1.27859156-1.82-2.1-.8225369-1.37331249-.9377861-3.05743804-.31-4.53z" fill="#bdc3c7"/></g></svg>