<?xml version="1.0" standalone="no"?>
<!DOCTYPE svg PUBLIC "-//W3C//DTD SVG 20010904//EN"
 "http://www.w3.org/TR/2001/REC-SVG-20010904/DTD/svg10.dtd">
<svg version="1.0" xmlns="http://www.w3.org/2000/svg"
 width="1280.000000pt" height="1280.000000pt" viewBox="0 0 1280.000000 1280.000000"
 preserveAspectRatio="xMidYMid meet">
<g transform="translate(0.000000,1280.000000) scale(0.100000,-0.100000)"
fill="#000000" stroke="none">
<path d="M0 12320 l0 -480 75 0 74 0 3 -67 3 -68 62 -3 c36 -2 66 -8 72 -16 8
-9 11 -63 9 -157 l-3 -144 -60 -5 c-33 -3 -66 -9 -73 -13 -8 -5 -12 -33 -12
-78 l0 -69 -75 0 -75 0 0 -705 0 -704 72 -3 73 -3 3 -55 c4 -100 3 -99 80
-102 l67 -3 0 -160 0 -160 -67 -3 c-77 -3 -76 -2 -80 -102 l-3 -55 -72 -3 -73
-3 0 -704 0 -705 75 0 74 0 3 -72 3 -73 60 -3 c32 -2 65 -8 72 -14 10 -8 13
-51 13 -164 0 -175 8 -161 -95 -166 l-50 -3 -3 -70 c-2 -40 -8 -73 -15 -77 -7
-4 -40 -8 -74 -8 l-63 0 0 -700 0 -699 73 -3 72 -3 5 -75 5 -75 70 -5 70 -5 3
-154 c2 -102 -1 -158 -9 -167 -6 -8 -36 -14 -72 -16 l-62 -3 -3 -72 -3 -73
-74 0 -75 0 0 -705 0 -704 72 -3 73 -3 3 -55 c4 -100 3 -99 80 -102 l67 -3 0
-160 0 -160 -67 -3 c-77 -3 -76 -2 -80 -102 l-3 -55 -72 -3 -73 -3 0 -704 0
-705 75 0 74 0 3 -72 3 -73 60 -5 c33 -3 66 -9 73 -13 18 -12 17 -290 -1 -305
-7 -6 -40 -12 -72 -14 l-60 -3 -5 -65 -5 -65 -72 -3 -73 -3 0 -479 0 -480 480
0 479 0 3 72 3 73 65 5 65 5 3 60 c2 32 8 65 14 72 14 18 293 19 304 1 4 -6
10 -39 13 -72 l6 -61 73 -3 72 -3 0 -74 0 -75 705 0 704 0 3 72 3 73 55 3
c100 4 99 3 102 80 l3 67 160 0 160 0 3 -67 c3 -77 2 -76 102 -80 l55 -3 3
-73 3 -72 704 0 705 0 0 75 0 74 73 3 72 3 3 62 c2 36 8 66 16 72 9 8 65 11
167 9 l154 -3 5 -70 5 -70 75 -5 75 -5 3 -72 3 -73 699 0 699 0 3 73 3 72 75
5 75 5 5 70 5 70 154 3 c102 2 158 -1 167 -9 8 -6 14 -36 16 -72 l3 -62 73 -3
72 -3 0 -74 0 -75 705 0 704 0 3 73 3 72 55 3 c100 4 99 3 102 80 l3 67 160 0
160 0 3 -67 c3 -77 2 -76 102 -80 l55 -3 3 -72 3 -73 704 0 705 0 0 75 0 74
73 3 72 3 6 61 c3 33 9 66 13 72 11 18 290 17 304 -1 6 -7 12 -40 14 -72 l3
-60 65 -5 65 -5 3 -72 3 -73 479 0 480 0 0 480 0 479 -72 3 -73 3 -5 65 -5 65
-60 3 c-32 2 -65 8 -72 14 -18 15 -19 293 0 305 6 4 39 10 72 13 l60 5 3 72 3
73 74 0 75 0 0 705 0 704 -72 3 -73 3 -3 55 c-4 100 -3 99 -80 102 l-67 3 0
160 0 160 67 3 c77 3 76 2 80 102 l3 55 73 3 72 3 0 704 0 705 -75 0 -74 0 -3
73 -3 72 -62 3 c-36 2 -66 8 -72 16 -8 9 -11 65 -9 167 l3 154 70 5 70 5 5 75
5 75 73 3 72 3 0 699 0 700 -62 0 c-35 0 -68 4 -75 8 -7 4 -13 37 -15 77 l-3
70 -50 3 c-103 5 -95 -9 -95 166 0 113 3 156 13 164 7 6 40 12 72 14 l60 3 3
73 3 72 74 0 75 0 0 705 0 704 -72 3 -73 3 -3 55 c-4 100 -3 99 -80 102 l-67
3 0 160 0 160 67 3 c77 3 76 2 80 102 l3 55 73 3 72 3 0 704 0 705 -75 0 -75
0 0 69 c0 45 -4 73 -12 78 -7 4 -40 10 -73 13 l-60 5 -3 144 c-2 94 1 148 9
157 6 8 36 14 72 16 l62 3 3 68 3 67 74 0 75 0 0 480 0 480 -480 0 -479 0 -3
-72 -3 -73 -65 -5 -65 -5 -3 -60 c-2 -32 -8 -65 -14 -72 -14 -18 -293 -19
-304 -1 -4 6 -10 39 -13 72 l-6 61 -72 3 -73 3 0 74 0 75 -705 0 -704 0 -3
-72 -3 -73 -75 -5 -75 -5 -5 -70 -5 -70 -160 0 -160 0 -5 70 -5 70 -75 5 -75
5 -3 73 -3 72 -704 0 -705 0 0 -75 0 -74 -72 -3 -73 -3 -3 -60 c-2 -32 -8 -65
-14 -72 -12 -14 -293 -19 -315 -5 -7 4 -13 36 -15 72 l-3 65 -70 3 c-40 2 -73
8 -77 15 -4 7 -8 40 -8 75 l0 62 -700 0 -700 0 0 -62 c0 -35 -4 -68 -8 -75 -4
-7 -37 -13 -77 -15 l-70 -3 -3 -65 c-2 -36 -8 -68 -15 -72 -22 -14 -303 -9
-315 5 -6 7 -12 40 -14 72 l-3 60 -72 3 -73 3 0 74 0 75 -705 0 -704 0 -3 -72
-3 -73 -75 -5 -75 -5 -5 -70 -5 -70 -160 0 -160 0 -5 70 -5 70 -75 5 -75 5 -3
73 -3 72 -704 0 -705 0 0 -75 0 -74 -72 -3 -73 -3 -6 -61 c-3 -33 -9 -66 -13
-72 -11 -18 -290 -17 -304 1 -6 7 -12 40 -14 72 l-3 60 -65 5 -65 5 -3 73 -3
72 -479 0 -480 0 0 -480z m638 392 c5 -73 8 -72 -249 -72 l-229 0 0 -229 c0
-257 1 -254 -72 -249 l-43 3 -3 285 c-1 157 0 290 3 298 3 10 67 12 297 10
l293 -3 3 -43z m140 -6 c4 -54 -5 -66 -50 -66 -49 0 -58 9 -58 59 0 26 3 51 7
55 4 4 28 6 53 4 l45 -3 3 -49z m150 6 c4 -53 -10 -72 -54 -72 -41 0 -64 22
-64 64 0 44 17 57 70 54 l45 -3 3 -43z m810 -6 c4 -55 -5 -66 -55 -66 -55 0
-63 8 -63 59 0 26 3 51 7 55 4 4 30 6 58 4 l50 -3 3 -49z m160 6 c4 -53 -10
-72 -53 -72 -57 0 -65 7 -65 59 0 26 3 51 7 55 4 4 30 6 58 4 l50 -3 3 -43z
m740 -2 c3 -33 -1 -47 -14 -57 -14 -10 -93 -13 -340 -13 -280 0 -325 2 -338
16 -19 18 -21 75 -4 92 9 9 96 12 353 10 l340 -3 3 -45z m156 34 c3 -9 6 -31
6 -49 0 -38 -20 -55 -65 -55 -45 0 -65 17 -65 55 0 58 7 65 65 65 39 0 54 -4
59 -16z m156 -3 c15 -29 12 -67 -6 -85 -18 -19 -85 -21 -102 -4 -13 13 -17 90
-5 101 3 4 28 7 54 7 38 0 51 -4 59 -19z m848 -31 c4 -52 -13 -70 -64 -70 -55
0 -81 49 -53 101 8 17 19 20 62 17 l52 -3 3 -45z m156 34 c3 -9 6 -31 6 -49 0
-38 -20 -55 -65 -55 -45 0 -65 17 -65 55 0 58 7 65 65 65 39 0 54 -4 59 -16z
m734 4 c17 -17 15 -74 -4 -92 -13 -14 -59 -16 -343 -16 -241 0 -330 3 -339 12
-13 13 -17 90 -5 101 3 4 158 7 343 7 248 0 339 -3 348 -12z m160 -42 c2 -32
-1 -52 -10 -57 -20 -13 -82 -11 -96 3 -13 13 -17 90 -5 102 4 4 30 6 58 4 l50
-3 3 -49z m160 0 c4 -55 -5 -66 -55 -66 -55 0 -63 8 -63 59 0 26 3 51 7 55 4
4 30 6 58 4 l50 -3 3 -49z m842 35 c15 -29 12 -67 -6 -85 -18 -19 -85 -21
-102 -4 -13 13 -17 90 -5 101 3 4 28 7 54 7 38 0 51 -4 59 -19z m158 -35 c4
-55 -5 -66 -55 -66 -55 0 -63 8 -63 59 0 26 3 51 7 55 4 4 30 6 58 4 l50 -3 3
-49z m740 0 c2 -32 -1 -52 -10 -57 -15 -10 -648 -12 -672 -3 -12 4 -16 20 -16
53 0 26 3 51 7 54 4 4 160 6 347 5 l341 -3 3 -49z m160 0 c4 -55 -5 -66 -55
-66 -55 0 -63 8 -63 59 0 26 3 51 7 55 4 4 30 6 58 4 l50 -3 3 -49z m160 6 c4
-55 -10 -72 -59 -72 -60 0 -87 47 -58 101 8 17 19 20 62 17 l52 -3 3 -43z
m840 -6 c4 -55 -5 -66 -55 -66 -55 0 -63 8 -63 59 0 26 3 51 7 55 4 4 30 6 58
4 l50 -3 3 -49z m160 6 c4 -53 -10 -72 -53 -72 -57 0 -65 7 -65 59 0 26 3 51
7 55 4 4 30 6 58 4 l50 -3 3 -43z m740 0 c5 -75 19 -72 -349 -72 -284 0 -330
2 -343 16 -19 18 -21 75 -4 92 9 9 96 12 353 10 l340 -3 3 -43z m156 32 c3 -9
6 -31 6 -49 0 -38 -20 -55 -65 -55 -45 0 -65 17 -65 55 0 58 7 65 65 65 39 0
54 -4 59 -16z m156 -3 c27 -51 1 -101 -51 -101 -52 0 -69 16 -69 64 0 23 3 46
7 49 3 4 28 7 54 7 38 0 51 -4 59 -19z m848 -29 c4 -55 -10 -72 -59 -72 -60 0
-87 47 -58 101 8 17 19 20 62 17 l52 -3 3 -43z m156 32 c3 -9 6 -31 6 -49 0
-38 -20 -55 -65 -55 -45 0 -65 17 -65 55 0 58 7 65 65 65 39 0 54 -4 59 -16z
m734 4 c17 -17 15 -74 -4 -92 -13 -14 -59 -16 -343 -16 -241 0 -330 3 -339 12
-13 13 -17 90 -5 101 3 4 158 7 343 7 248 0 339 -3 348 -12z m160 -42 c2 -32
-1 -52 -10 -57 -20 -13 -82 -11 -96 3 -13 13 -17 90 -5 102 4 4 30 6 58 4 l50
-3 3 -49z m160 0 c4 -55 -5 -66 -55 -66 -55 0 -63 8 -63 59 0 26 3 51 7 55 4
4 30 6 58 4 l50 -3 3 -49z m800 42 c17 -17 15 -74 -4 -92 -18 -19 -75 -21 -92
-4 -13 13 -17 90 -5 101 11 12 88 8 101 -5z m150 -42 c4 -54 -5 -66 -50 -66
-49 0 -58 9 -58 59 0 26 3 51 7 55 4 4 28 6 53 4 l45 -3 3 -49z m627 -246 l0
-295 -43 -3 c-73 -5 -72 -8 -72 249 l0 229 -228 0 c-164 0 -231 3 -240 12 -13
13 -17 90 -5 101 4 4 137 6 297 5 l291 -3 0 -295z m-12131 147 c13 -10 17 -24
14 -57 l-3 -45 -167 -3 -168 -2 -2 -168 -3 -167 -50 0 -50 0 -3 219 c-2 169 1
221 10 228 23 14 402 10 422 -5z m144 4 c9 -5 12 -25 10 -57 l-3 -49 -50 0
-50 0 -3 52 c-2 43 0 52 15 56 30 8 67 7 81 -2z m146 -4 c13 -10 17 -24 14
-57 l-3 -45 -49 -3 c-32 -2 -52 1 -57 10 -14 22 -10 76 7 92 19 19 64 21 88 3z
m144 4 c9 -5 12 -25 10 -57 l-3 -49 -50 0 -50 0 -3 52 c-2 43 0 52 15 56 30 8
67 7 81 -2z m500 3 c21 -6 23 -12 20 -58 l-3 -51 -55 0 -55 0 -3 52 c-2 43 0
52 15 56 28 7 56 7 81 1z m160 0 c21 -6 23 -12 20 -58 l-3 -51 -55 0 -55 0 -3
52 c-2 43 0 52 15 56 28 7 56 7 81 1z m166 -7 c13 -10 17 -24 14 -57 l-3 -45
-55 0 -55 0 -3 49 c-2 32 1 52 10 57 20 13 72 11 92 -4z m740 0 c13 -10 17
-24 14 -57 l-3 -45 -344 -3 c-375 -2 -361 -5 -361 55 0 63 -3 63 354 63 247 0
326 -3 340 -13z m157 3 c13 -7 19 -21 19 -45 0 -58 -7 -65 -65 -65 -58 0 -65
7 -65 65 0 22 6 38 18 44 22 13 68 14 93 1z m163 -6 c19 -19 21 -64 3 -88 -10
-13 -24 -17 -62 -14 l-50 3 -3 45 c-3 33 1 47 14 57 24 18 79 16 98 -3z m144
10 c21 -6 23 -12 20 -58 l-3 -51 -55 0 -55 0 -3 52 c-2 43 0 52 15 56 28 7 56
7 81 1z m536 -7 c13 -10 17 -24 14 -57 l-3 -45 -55 0 -55 0 -3 49 c-2 32 1 52
10 57 20 13 72 11 92 -4z m160 0 c13 -10 17 -24 14 -57 l-3 -45 -50 -3 c-38
-3 -52 1 -62 14 -18 24 -16 69 3 88 19 19 74 21 98 3z m157 3 c13 -7 19 -21
19 -45 0 -58 -7 -65 -65 -65 -58 0 -65 7 -65 65 0 22 6 38 18 44 22 13 68 14
93 1z m743 -6 c17 -16 21 -70 8 -92 -7 -9 -84 -12 -353 -10 l-344 3 -3 45 c-3
33 1 47 14 57 14 10 93 13 340 13 280 0 325 -2 338 -16z m154 7 c9 -5 12 -25
10 -57 l-3 -49 -55 0 -55 0 -3 45 c-3 33 1 47 14 57 20 15 72 17 92 4z m150 3
c21 -6 23 -12 20 -58 l-3 -51 -55 0 -55 0 -3 52 c-2 43 0 52 15 56 28 7 56 7
81 1z m166 -7 c13 -10 17 -24 14 -57 l-3 -45 -55 0 -55 0 -3 49 c-2 32 1 52
10 57 20 13 72 11 92 -4z m527 3 c13 -7 19 -21 19 -45 0 -58 -7 -65 -65 -65
-58 0 -65 7 -65 65 0 22 6 38 18 44 22 13 68 14 93 1z m163 -6 c17 -16 20 -44
10 -82 -6 -21 -11 -23 -63 -20 l-56 3 -3 45 c-3 33 1 47 14 57 24 18 79 16 98
-3z m144 10 c21 -6 23 -12 20 -58 l-3 -51 -55 0 -55 0 -3 45 c-5 62 26 82 96
64z m740 0 c21 -6 23 -12 20 -58 l-3 -51 -345 0 -345 0 -3 52 c-2 43 0 52 15
56 27 7 635 8 661 1z m166 -7 c13 -10 17 -24 14 -57 l-3 -45 -55 0 -55 0 -3
52 c-2 43 0 52 15 56 35 9 69 7 87 -6z m160 0 c13 -10 17 -24 14 -57 l-3 -45
-56 -3 c-52 -3 -57 -1 -63 20 -10 38 -7 66 10 82 19 19 74 21 98 3z m157 3
c13 -7 19 -21 19 -45 0 -58 -7 -65 -65 -65 -58 0 -65 7 -65 65 0 22 6 38 18
44 22 13 68 14 93 1z m527 1 c9 -5 12 -25 10 -57 l-3 -49 -55 0 -55 0 -3 45
c-3 33 1 47 14 57 20 15 72 17 92 4z m150 3 c21 -6 23 -12 20 -58 l-3 -51 -55
0 -55 0 -3 52 c-2 43 0 52 15 56 28 7 56 7 81 1z m166 -7 c13 -10 17 -24 14
-57 l-3 -45 -55 0 -55 0 -3 49 c-2 32 1 52 10 57 20 13 72 11 92 -4z m740 0
c13 -10 17 -24 14 -57 l-3 -45 -344 -3 c-375 -2 -361 -5 -361 55 0 63 -3 63
354 63 247 0 326 -3 340 -13z m157 3 c13 -7 19 -21 19 -45 0 -58 -7 -65 -65
-65 -58 0 -65 7 -65 65 0 22 6 38 18 44 22 13 68 14 93 1z m163 -6 c19 -19 21
-64 3 -88 -10 -13 -24 -17 -62 -14 l-50 3 -3 45 c-3 33 1 47 14 57 24 18 79
16 98 -3z m154 7 c9 -5 12 -25 10 -57 l-3 -49 -55 0 -55 0 -3 45 c-3 33 1 47
14 57 20 15 72 17 92 4z m520 3 c21 -6 23 -12 20 -58 l-3 -51 -55 0 -55 0 -3
52 c-2 43 0 52 15 56 28 7 56 7 81 1z m166 -7 c13 -10 17 -24 14 -57 l-3 -45
-50 -3 c-38 -3 -52 1 -62 14 -18 24 -16 69 3 88 19 19 74 21 98 3z m157 3 c13
-7 19 -21 19 -45 0 -58 -7 -65 -65 -65 -58 0 -65 7 -65 65 0 22 6 38 18 44 22
13 68 14 93 1z m743 -6 c17 -16 21 -70 8 -92 -7 -9 -84 -12 -353 -10 l-344 3
-3 45 c-3 33 1 47 14 57 14 10 93 13 340 13 280 0 325 -2 338 -16z m154 7 c9
-5 12 -25 10 -57 l-3 -49 -55 0 -55 0 -3 45 c-3 33 1 47 14 57 20 15 72 17 92
4z m150 3 c21 -6 23 -12 20 -58 l-3 -51 -55 0 -55 0 -3 52 c-2 43 0 52 15 56
28 7 56 7 81 1z m160 0 c21 -6 23 -12 20 -58 l-3 -51 -55 0 -55 0 -3 52 c-2
43 0 52 15 56 28 7 56 7 81 1z m500 0 c21 -6 23 -12 20 -58 l-3 -51 -50 0 -50
0 -3 49 c-4 63 18 78 86 60z m156 -10 c17 -16 21 -70 7 -92 -5 -9 -25 -12 -57
-10 l-49 3 -3 45 c-3 33 1 47 14 57 24 18 69 16 88 -3z m134 10 c21 -6 23 -12
20 -58 l-3 -51 -50 0 -50 0 -3 49 c-4 63 18 78 86 60z m490 -2 c9 -7 12 -59
10 -228 l-3 -219 -50 0 -50 0 -3 167 -2 168 -168 2 -167 3 -3 45 c-5 68 0 70
227 70 108 0 202 -4 209 -8z m-11963 -197 l0 -50 -70 -3 c-118 -4 -115 -2
-115 -82 0 -38 -4 -80 -10 -95 -9 -24 -14 -26 -57 -23 l-48 3 -3 140 c-1 76 0
145 2 152 4 11 38 13 153 11 l148 -3 0 -50z m143 -2 l3 -53 -55 0 -56 0 0 48
c0 27 3 52 7 56 4 4 28 6 53 4 l45 -3 3 -52z m147 2 l0 -50 -49 -3 c-55 -4
-66 5 -66 54 0 42 17 55 70 52 l45 -3 0 -50z m143 -2 l3 -53 -55 0 -56 0 0 48
c0 27 3 52 7 56 4 4 28 6 53 4 l45 -3 3 -52z m147 2 l0 -50 -49 -3 c-55 -4
-66 5 -66 54 0 42 17 55 70 52 l45 -3 0 -50z m205 30 c5 -14 7 -39 3 -55 -6
-31 -6 -31 -62 -28 l-56 3 -3 39 c-5 59 1 66 58 66 45 0 52 -3 60 -25z m158
-33 l3 -53 -58 3 -58 3 -3 39 c-5 61 1 67 60 64 l53 -3 3 -53z m160 1 l3 -53
-60 0 -61 0 0 48 c0 27 3 52 7 56 4 4 30 6 58 4 l50 -3 3 -52z m157 2 l0 -50
-57 -3 -58 -3 0 49 c0 27 3 52 7 56 4 4 30 6 58 4 l50 -3 0 -50z m740 0 l0
-50 -344 -3 c-269 -2 -346 1 -353 10 -12 20 -10 72 4 86 9 9 96 12 353 10
l340 -3 0 -50z m161 31 c3 -13 4 -37 2 -52 -3 -28 -4 -29 -63 -29 -59 0 -60 1
-63 29 -2 15 -1 39 2 52 6 22 12 24 61 24 49 0 55 -2 61 -24z m158 -7 c5 -14
6 -38 2 -53 -6 -26 -9 -27 -64 -24 l-57 3 -3 39 c-5 61 1 67 60 64 46 -3 54
-6 62 -29z m154 -27 l3 -53 -58 3 -58 3 -3 39 c-5 61 1 67 60 64 l53 -3 3 -53z
m160 1 l3 -53 -60 0 -61 0 0 48 c0 27 3 52 7 56 4 4 30 6 58 4 l50 -3 3 -52z
m210 0 l3 -53 -60 0 -61 0 0 48 c0 27 3 52 7 56 4 4 30 6 58 4 l50 -3 3 -52z
m157 2 l0 -50 -57 -3 -58 -3 0 49 c0 27 3 52 7 56 4 4 30 6 58 4 l50 -3 0 -50z
m160 0 l0 -50 -54 -3 c-58 -3 -71 5 -71 46 0 49 17 63 73 60 l52 -3 0 -50z
m159 39 c9 -22 7 -67 -3 -82 -5 -9 -25 -12 -62 -10 -51 3 -54 4 -57 32 -2 15
-1 39 2 52 6 22 12 24 60 24 40 0 55 -4 60 -16z m734 4 c14 -14 16 -66 4 -86
-7 -9 -84 -12 -353 -10 l-344 3 -3 39 c-6 70 -28 66 346 66 249 0 341 -3 350
-12z m160 -46 l3 -53 -58 3 -58 3 -3 39 c-5 61 1 67 60 64 l53 -3 3 -53z m160
1 l3 -53 -60 0 -61 0 0 48 c0 27 3 52 7 56 4 4 30 6 58 4 l50 -3 3 -52z m157
2 l0 -50 -57 -3 -58 -3 0 49 c0 27 3 52 7 56 4 4 30 6 58 4 l50 -3 0 -50z
m161 31 c3 -13 4 -37 2 -52 -3 -28 -6 -29 -57 -32 -60 -3 -71 4 -71 54 0 42
16 54 72 54 42 0 48 -3 54 -24z m209 -31 l0 -50 -57 -3 -58 -3 0 49 c0 27 3
52 7 56 4 4 30 6 58 4 l50 -3 0 -50z m161 31 c3 -13 4 -37 2 -52 -3 -28 -4
-29 -63 -29 -59 0 -60 1 -63 29 -2 15 -1 39 2 52 6 22 12 24 61 24 49 0 55 -2
61 -24z m158 -7 c5 -14 6 -38 2 -53 -6 -26 -9 -27 -64 -24 l-57 3 -3 39 c-5
61 1 67 60 64 46 -3 54 -6 62 -29z m154 -27 l3 -53 -58 3 -58 3 -3 39 c-5 61
1 67 60 64 l53 -3 3 -53z m740 1 l3 -53 -350 0 -351 0 0 48 c0 27 3 52 7 55 4
4 160 6 347 5 l341 -3 3 -52z m157 2 l0 -50 -57 -3 -58 -3 0 49 c0 27 3 52 7
56 4 4 30 6 58 4 l50 -3 0 -50z m160 0 l0 -50 -54 -3 c-58 -3 -71 5 -71 46 0
49 17 63 73 60 l52 -3 0 -50z m161 31 c3 -13 4 -37 2 -52 -3 -28 -4 -29 -63
-29 -59 0 -60 1 -63 29 -2 15 -1 39 2 52 6 22 12 24 61 24 49 0 55 -2 61 -24z
m152 -34 l3 -53 -58 3 -58 3 -3 39 c-5 61 1 67 60 64 l53 -3 3 -53z m210 46
c14 -14 16 -67 3 -86 -5 -9 -25 -12 -62 -10 -51 3 -54 4 -57 32 -2 15 -1 39 2
52 6 21 12 24 54 24 26 0 53 -5 60 -12z m160 -46 l3 -53 -58 3 -58 3 -3 39
c-5 61 1 67 60 64 l53 -3 3 -53z m160 1 l3 -53 -60 0 -61 0 0 48 c0 27 3 52 7
56 4 4 30 6 58 4 l50 -3 3 -52z m157 2 l0 -50 -57 -3 -58 -3 0 49 c0 27 3 52
7 56 4 4 30 6 58 4 l50 -3 0 -50z m740 0 l0 -50 -344 -3 c-269 -2 -346 1 -353
10 -12 20 -10 72 4 86 9 9 96 12 353 10 l340 -3 0 -50z m161 31 c3 -13 4 -37
2 -52 -3 -28 -6 -29 -57 -32 -59 -3 -71 5 -71 50 0 51 8 58 66 58 48 0 54 -2
60 -24z m158 -7 c5 -14 6 -38 2 -53 -6 -26 -9 -27 -64 -24 l-57 3 -3 39 c-5
61 1 67 60 64 46 -3 54 -6 62 -29z m154 -27 l3 -53 -58 3 -58 3 -3 39 c-5 61
1 67 60 64 l53 -3 3 -53z m160 1 l3 -53 -60 0 -61 0 0 48 c0 27 3 52 7 56 4 4
30 6 58 4 l50 -3 3 -52z m210 0 l3 -53 -60 0 -61 0 0 48 c0 27 3 52 7 56 4 4
30 6 58 4 l50 -3 3 -52z m157 2 l0 -50 -57 -3 -58 -3 0 49 c0 27 3 52 7 56 4
4 30 6 58 4 l50 -3 0 -50z m160 0 l0 -50 -54 -3 c-58 -3 -71 5 -71 46 0 49 17
63 73 60 l52 -3 0 -50z m161 31 c3 -13 4 -37 2 -52 -3 -28 -4 -29 -63 -29 -59
0 -60 1 -63 29 -2 15 -1 39 2 52 6 22 12 24 61 24 49 0 55 -2 61 -24z m732 12
c14 -14 16 -66 4 -86 -7 -9 -84 -12 -353 -10 l-344 3 -3 39 c-6 70 -28 66 346
66 249 0 341 -3 350 -12z m160 -46 l3 -53 -58 3 -58 3 -3 39 c-5 61 1 67 60
64 l53 -3 3 -53z m160 1 l3 -53 -60 0 -61 0 0 48 c0 27 3 52 7 56 4 4 30 6 58
4 l50 -3 3 -52z m157 2 l0 -50 -57 -3 -58 -3 0 49 c0 27 3 52 7 56 4 4 30 6
58 4 l50 -3 0 -50z m160 0 l0 -50 -57 -3 -57 -3 -6 34 c-4 20 -2 44 5 56 10
19 19 22 63 19 l52 -3 0 -50z m193 43 c14 -14 16 -67 3 -86 -5 -9 -25 -12 -57
-10 l-49 3 -3 39 c-2 21 -1 44 2 52 7 18 87 19 104 2z m150 -45 l3 -53 -55 0
-56 0 0 48 c0 27 3 52 7 56 4 4 28 6 53 4 l45 -3 3 -52z m140 45 c14 -14 16
-67 3 -86 -5 -9 -25 -12 -57 -10 l-49 3 -3 39 c-2 21 -1 44 2 52 7 18 87 19
104 2z m150 -45 l3 -53 -55 0 -56 0 0 48 c0 27 3 52 7 56 4 4 28 6 53 4 l45
-3 3 -52z m337 -98 l0 -150 -48 -3 c-43 -3 -48 -1 -57 23 -6 15 -10 57 -10 95
0 80 3 78 -115 82 l-70 3 -3 39 c-6 68 -9 67 155 64 l148 -3 0 -150z m-11830
-50 c0 -44 -3 -50 -22 -53 -14 -2 -23 -11 -25 -25 -3 -19 -9 -22 -53 -22 l-50
0 -3 78 -3 78 78 -3 78 -3 0 -50z m143 3 l-3 -53 -50 0 -50 0 -3 53 -3 52 56
0 56 0 -3 -52z m147 -3 l0 -50 -43 -3 c-51 -4 -72 10 -72 48 0 54 8 61 64 58
l51 -3 0 -50z m143 3 l-3 -53 -50 0 -50 0 -3 53 -3 52 56 0 56 0 -3 -52z m147
-3 l0 -50 -43 -3 c-51 -4 -72 10 -72 48 0 54 8 61 64 58 l51 -3 0 -50z m209
25 c3 -17 1 -41 -4 -56 -9 -23 -14 -25 -62 -22 l-53 3 -3 39 c-5 60 1 66 61
66 53 0 55 -1 61 -30z m154 -22 l-3 -53 -55 0 -55 0 -3 39 c-5 60 1 66 63 66
l56 0 -3 -52z m160 0 l-3 -53 -55 0 -55 0 -3 53 -3 52 61 0 61 0 -3 -52z m157
-3 l0 -50 -55 0 -55 0 -3 53 -3 53 58 -3 58 -3 0 -50z m740 0 l0 -50 -339 -3
c-242 -2 -343 1 -352 9 -15 12 -19 56 -8 83 6 15 43 16 353 14 l346 -3 0 -50z
m163 12 c2 -21 -2 -45 -9 -53 -14 -17 -90 -19 -107 -2 -13 13 -17 80 -5 92 4
4 32 6 63 4 l55 -3 3 -38z m158 17 c4 -15 3 -39 -2 -53 -9 -24 -14 -26 -64
-26 l-55 0 -3 39 c-5 60 1 66 62 66 52 0 56 -2 62 -26z m152 -26 l-3 -53 -55
0 -55 0 -3 39 c-5 60 1 66 63 66 l56 0 -3 -52z m160 0 l-3 -53 -55 0 -55 0 -3
53 -3 52 61 0 61 0 -3 -52z m210 0 l-3 -53 -55 0 -55 0 -3 53 -3 52 61 0 61 0
-3 -52z m157 -3 l0 -50 -55 0 -55 0 -3 53 -3 53 58 -3 58 -3 0 -50z m160 0 l0
-50 -55 0 c-50 0 -55 2 -64 26 -5 14 -6 38 -2 53 6 26 9 27 64 24 l57 -3 0
-50z m159 39 c10 -26 7 -69 -6 -82 -18 -18 -105 -15 -112 4 -8 21 -8 79 1 87
3 4 30 7 59 7 38 0 53 -4 58 -16z m740 0 c11 -27 6 -71 -8 -83 -9 -8 -110 -11
-352 -9 l-339 3 -3 39 c-6 70 -29 66 352 66 304 0 345 -2 350 -16z m154 -36
l-3 -53 -55 0 -55 0 -3 39 c-5 60 1 66 63 66 l56 0 -3 -52z m160 0 l-3 -53
-55 0 -55 0 -3 53 -3 52 61 0 61 0 -3 -52z m157 -3 l0 -50 -55 0 -55 0 -3 53
-3 53 58 -3 58 -3 0 -50z m163 21 c2 -15 1 -39 -2 -52 -6 -21 -12 -24 -54 -24
-55 0 -72 12 -72 51 0 54 8 60 69 57 53 -3 56 -4 59 -32z m207 -21 l0 -50 -55
0 -55 0 -3 53 -3 53 58 -3 58 -3 0 -50z m163 12 c2 -21 -2 -45 -9 -53 -14 -17
-90 -19 -107 -2 -13 13 -17 80 -5 92 4 4 32 6 63 4 l55 -3 3 -38z m158 17 c4
-15 3 -39 -2 -53 -9 -24 -14 -26 -64 -26 l-55 0 -3 39 c-5 60 1 66 62 66 52 0
56 -2 62 -26z m152 -26 l-3 -53 -55 0 -55 0 -3 39 c-5 60 1 66 63 66 l56 0 -3
-52z m740 0 l-3 -53 -345 0 -345 0 -3 53 -3 52 351 0 351 0 -3 -52z m157 -3
l0 -50 -55 0 -55 0 -3 53 -3 53 58 -3 58 -3 0 -50z m160 0 l0 -50 -55 0 c-50
0 -55 2 -64 26 -5 14 -6 38 -2 53 6 26 9 27 64 24 l57 -3 0 -50z m163 12 c2
-21 -2 -45 -9 -53 -14 -17 -90 -19 -107 -2 -13 13 -17 80 -5 92 4 4 32 6 63 4
l55 -3 3 -38z m150 -9 l-3 -53 -55 0 -55 0 -3 39 c-5 60 1 66 63 66 l56 0 -3
-52z m216 36 c10 -26 7 -69 -6 -82 -18 -18 -105 -15 -112 4 -8 21 -8 79 1 87
3 4 30 7 59 7 38 0 53 -4 58 -16z m154 -36 l-3 -53 -55 0 -55 0 -3 39 c-5 60
1 66 63 66 l56 0 -3 -52z m160 0 l-3 -53 -55 0 -55 0 -3 53 -3 52 61 0 61 0
-3 -52z m157 -3 l0 -50 -55 0 -55 0 -3 53 -3 53 58 -3 58 -3 0 -50z m740 0 l0
-50 -339 -3 c-242 -2 -343 1 -352 9 -15 12 -19 56 -8 83 6 15 43 16 353 14
l346 -3 0 -50z m163 21 c2 -15 1 -39 -2 -52 -6 -21 -12 -24 -54 -24 -55 0 -72
12 -72 51 0 54 8 60 69 57 53 -3 56 -4 59 -32z m158 8 c4 -15 3 -39 -2 -53 -9
-24 -14 -26 -64 -26 l-55 0 -3 39 c-5 60 1 66 62 66 52 0 56 -2 62 -26z m152
-26 l-3 -53 -55 0 -55 0 -3 39 c-5 60 1 66 63 66 l56 0 -3 -52z m160 0 l-3
-53 -55 0 -55 0 -3 53 -3 52 61 0 61 0 -3 -52z m210 0 l-3 -53 -55 0 -55 0 -3
53 -3 52 61 0 61 0 -3 -52z m157 -3 l0 -50 -55 0 -55 0 -3 53 -3 53 58 -3 58
-3 0 -50z m160 0 l0 -50 -55 0 c-50 0 -55 2 -64 26 -5 14 -6 38 -2 53 6 26 9
27 64 24 l57 -3 0 -50z m163 12 c2 -21 -2 -45 -9 -53 -14 -17 -90 -19 -107 -2
-13 13 -17 80 -5 92 4 4 32 6 63 4 l55 -3 3 -38z m736 27 c11 -27 6 -71 -8
-83 -9 -8 -110 -11 -352 -9 l-339 3 -3 39 c-6 70 -29 66 352 66 304 0 345 -2
350 -16z m154 -36 l-3 -53 -55 0 -55 0 -3 39 c-5 60 1 66 63 66 l56 0 -3 -52z
m160 0 l-3 -53 -55 0 -55 0 -3 53 -3 52 61 0 61 0 -3 -52z m157 -3 l0 -50 -55
0 -55 0 -3 53 -3 53 58 -3 58 -3 0 -50z m160 0 l0 -50 -52 -3 c-44 -3 -53 0
-63 19 -7 12 -9 36 -5 56 l6 34 57 -3 57 -3 0 -50z m199 39 c11 -28 6 -71 -8
-83 -8 -7 -34 -11 -58 -9 -42 3 -43 4 -46 42 -5 59 1 66 57 66 35 0 51 -4 55
-16z m144 -36 l-3 -53 -50 0 -50 0 -3 53 -3 52 56 0 56 0 -3 -52z m146 36 c11
-28 6 -71 -8 -83 -8 -7 -34 -11 -58 -9 -42 3 -43 4 -46 42 -5 59 1 66 57 66
35 0 51 -4 55 -16z m144 -36 l-3 -53 -50 0 -50 0 -3 53 -3 52 56 0 56 0 -3
-52z m190 -25 l-3 -78 -50 0 c-44 0 -50 3 -53 22 -2 14 -11 23 -25 25 -18 2
-23 11 -25 42 -5 63 -1 66 83 66 l76 0 -3 -77z m-150 -75 c17 -17 17 -11519 0
-11536 -17 -17 -11519 -17 -11536 0 -17 17 -17 11519 0 11536 17 17 11519 17
11536 0z m-12014 -54 c9 -22 7 -67 -3 -82 -5 -9 -25 -12 -57 -10 l-49 3 -3 39
c-5 59 1 66 57 66 35 0 51 -4 55 -16z m141 -39 l0 -50 -52 -3 -53 -3 0 56 0
56 53 -3 52 -3 0 -50z m148 28 c3 -16 3 -41 0 -56 -5 -27 -8 -28 -57 -25 l-51
3 -3 39 c-5 59 1 66 57 66 45 0 49 -2 54 -27z m142 -28 l0 -50 -52 -3 -53 -3
0 49 c0 27 3 52 7 56 4 4 28 6 53 4 l45 -3 0 -50z m11733 -3 l3 -53 -53 3 -53
3 -3 39 c-5 60 1 68 55 64 l48 -3 3 -53z m147 3 l0 -50 -51 -3 c-49 -3 -52 -2
-57 25 -3 15 -3 41 0 56 5 27 8 28 57 25 l51 -3 0 -50z m145 -1 l0 -55 -52 3
-53 3 -3 39 c-5 59 1 66 58 66 l50 0 0 -56z m145 1 l0 -50 -49 -3 c-54 -4 -66
5 -66 50 0 52 8 59 64 56 l51 -3 0 -50z m-12611 -101 c20 -19 21 -78 2 -93 -8
-7 -34 -11 -58 -9 l-43 3 -3 43 c-2 24 2 50 9 58 15 19 74 18 93 -2z m144 7
c9 -5 12 -25 10 -57 l-3 -49 -50 0 -50 0 -3 49 c-4 55 5 66 53 66 17 0 36 -4
43 -9z m139 1 c18 -11 25 -55 14 -85 -10 -26 -15 -28 -58 -25 l-48 3 -3 43
c-2 24 2 50 9 58 12 15 66 19 86 6z m152 -6 c7 -8 11 -34 9 -58 l-3 -43 -50 0
-50 0 -3 49 c-2 32 1 52 10 57 21 14 75 10 87 -5z m11729 5 c9 -5 12 -25 10
-57 l-3 -49 -50 0 -50 0 -3 43 c-2 24 2 50 9 58 12 15 66 19 87 5z m151 -5 c7
-8 11 -34 9 -58 l-3 -43 -48 -3 c-43 -3 -48 -1 -58 25 -11 30 -4 74 14 85 20
13 74 9 86 -6z m139 5 c9 -5 12 -25 10 -57 l-3 -49 -50 0 -50 0 -3 49 c-4 55
5 66 53 66 17 0 36 -4 43 -9z m151 -5 c7 -8 11 -34 9 -58 l-3 -43 -43 -3 c-24
-2 -50 2 -58 9 -19 15 -18 74 2 93 19 20 78 21 93 2z m-12454 -191 l0 -50 -52
-3 -53 -3 0 56 0 56 53 -3 52 -3 0 -50z m148 28 c3 -16 3 -41 0 -56 -5 -27 -8
-28 -57 -25 l-51 3 -3 39 c-5 59 1 66 57 66 45 0 49 -2 54 -27z m142 -28 l0
-50 -52 -3 -53 -3 0 56 0 56 53 -3 52 -3 0 -50z m11735 -1 l0 -55 -52 3 -53 3
-3 39 c-5 59 1 66 58 66 l50 0 0 -56z m145 1 l0 -50 -51 -3 c-49 -3 -52 -2
-57 25 -3 15 -3 41 0 56 5 27 8 28 57 25 l51 -3 0 -50z m145 -1 l0 -55 -52 3
-53 3 -3 39 c-5 59 1 66 58 66 l50 0 0 -56z m-12184 -92 c17 -11 25 -58 14
-87 -9 -24 -14 -26 -57 -23 l-48 3 -3 43 c-2 24 2 50 9 58 12 15 66 19 85 6z
m152 -1 c9 -5 12 -25 10 -57 l-3 -49 -50 0 -50 0 -3 49 c-4 55 5 66 53 66 17
0 36 -4 43 -9z m11730 0 c9 -5 12 -25 10 -57 l-3 -49 -50 0 -50 0 -3 49 c-4
55 5 66 53 66 17 0 36 -4 43 -9z m151 -5 c7 -8 11 -34 9 -58 l-3 -43 -48 -3
c-43 -3 -48 -1 -57 23 -11 29 -3 76 14 87 19 13 73 9 85 -6z m-12019 -212 c6
-15 8 -42 4 -61 -6 -34 -6 -34 -58 -31 l-51 3 -3 44 c-5 64 1 71 53 71 40 0
47 -3 55 -26z m145 -34 l0 -55 -52 -3 -53 -3 0 54 c0 29 3 57 7 61 4 4 28 6
53 4 l45 -3 0 -55z m11733 -3 l3 -58 -53 3 -53 3 -3 44 c-5 66 1 73 55 69 l48
-3 3 -58z m147 3 l0 -55 -51 -3 c-52 -3 -52 -3 -58 31 -4 19 -2 47 4 61 9 25
14 27 57 24 l48 -3 0 -55z m-12170 -160 l0 -55 -52 -3 -53 -3 0 61 0 61 53 -3
52 -3 0 -55z m149 30 c3 -16 3 -44 -1 -60 -6 -30 -7 -31 -57 -28 l-51 3 -3 44
c-5 64 0 71 56 71 47 0 50 -2 56 -30z m141 -30 l0 -55 -52 -3 -53 -3 0 61 0
61 53 -3 52 -3 0 -55z m11735 -1 l0 -60 -52 3 -53 3 -3 44 c-5 65 0 71 58 71
l50 0 0 -61z m145 1 l0 -55 -51 -3 c-50 -3 -51 -2 -57 28 -4 16 -4 44 0 60 6
30 7 31 57 28 l51 -3 0 -55z m145 -1 l0 -60 -52 3 -53 3 -3 44 c-5 65 0 71 58
71 l50 0 0 -61z m-12456 -115 c9 -23 7 -77 -3 -92 -5 -9 -25 -12 -57 -10 l-49
3 -3 44 c-5 64 0 71 57 71 35 0 51 -4 55 -16z m141 -44 l0 -55 -52 -3 -53 -3
0 61 0 61 53 -3 52 -3 0 -55z m149 30 c3 -16 3 -44 -1 -60 -6 -30 -7 -31 -57
-28 l-51 3 -3 44 c-5 64 0 71 56 71 47 0 50 -2 56 -30z m141 -30 l0 -55 -52
-3 -53 -3 0 61 0 61 53 -3 52 -3 0 -55z m11735 -1 l0 -60 -52 3 -53 3 -3 44
c-5 65 0 71 58 71 l50 0 0 -61z m145 1 l0 -55 -51 -3 c-50 -3 -51 -2 -57 28
-4 16 -4 44 0 60 6 30 7 31 57 28 l51 -3 0 -55z m145 -1 l0 -60 -52 3 -53 3
-3 44 c-5 65 0 71 58 71 l50 0 0 -61z m145 1 l0 -55 -49 -3 c-55 -4 -66 5 -66
55 0 57 7 64 64 61 l51 -3 0 -55z m-12601 -116 c11 -28 6 -81 -8 -93 -8 -7
-34 -11 -58 -9 l-43 3 -3 44 c-5 64 0 71 57 71 35 0 51 -4 55 -16z m141 -44
l0 -55 -50 0 -50 0 -3 58 -3 58 53 -3 53 -3 0 -55z m149 26 c4 -18 2 -46 -4
-60 -9 -25 -14 -27 -57 -24 l-48 3 -3 44 c-5 64 0 71 57 71 48 0 49 -1 55 -34z
m141 -26 l0 -55 -50 0 -50 0 -3 58 -3 58 53 -3 53 -3 0 -55z m11733 3 l-3 -58
-50 0 -50 0 -3 44 c-5 65 0 71 58 71 l51 0 -3 -57z m147 -3 l0 -55 -48 -3
c-43 -3 -48 -1 -57 24 -6 14 -8 42 -4 61 6 34 6 34 58 31 l51 -3 0 -55z m143
3 l-3 -58 -50 0 -50 0 -3 44 c-5 65 0 71 58 71 l51 0 -3 -57z m147 -3 l0 -55
-43 -3 c-53 -4 -72 10 -72 53 0 59 7 66 64 63 l51 -3 0 -55z m-12611 -106 c14
-13 16 -59 16 -343 0 -368 3 -354 -72 -349 l-43 3 -3 339 c-2 242 1 343 9 352
16 19 74 18 93 -2z m144 8 c9 -7 12 -84 10 -353 l-3 -344 -50 0 -50 0 -3 344
c-2 373 -4 361 53 361 17 0 36 -4 43 -8z m142 -2 c13 -8 15 -58 18 -328 2
-203 -1 -329 -8 -346 -9 -25 -14 -27 -57 -24 l-48 3 -3 339 c-2 242 1 343 9
352 13 16 67 18 89 4z m148 2 c9 -7 12 -84 10 -353 l-3 -344 -50 0 -50 0 -3
344 c-2 373 -4 361 53 361 17 0 36 -4 43 -8z m11730 0 c9 -7 12 -84 10 -353
l-3 -344 -50 0 -50 0 -3 339 c-2 242 1 343 9 352 12 15 66 19 87 6z m151 -6
c8 -9 11 -110 9 -352 l-3 -339 -48 -3 c-43 -3 -48 -1 -57 24 -7 17 -10 143 -8
346 3 350 1 338 64 338 17 0 37 -6 43 -14z m139 6 c9 -7 12 -84 10 -353 l-3
-344 -50 0 -50 0 -3 344 c-2 373 -4 361 53 361 17 0 36 -4 43 -8z m151 -6 c8
-9 11 -110 9 -352 l-3 -339 -43 -3 c-75 -5 -72 -19 -72 349 0 284 2 330 16
343 19 20 77 21 93 2z m-12599 -745 c13 -25 13 -67 0 -92 -12 -22 -78 -27 -98
-7 -16 16 -16 90 0 106 20 20 86 15 98 -7z m134 13 c12 -5 16 -20 16 -59 0
-56 -8 -65 -55 -65 -47 0 -55 9 -55 64 0 29 3 56 7 59 8 9 66 9 87 1z m157
-21 c11 -29 3 -84 -15 -95 -18 -12 -71 -9 -84 4 -16 16 -16 105 1 111 6 3 29
6 50 6 32 1 39 -3 48 -26z m133 21 c12 -5 16 -20 16 -59 0 -56 -8 -65 -55 -65
-47 0 -55 9 -55 64 0 29 3 56 7 59 8 9 66 9 87 1z m11744 -53 c3 -59 -5 -71
-50 -71 -51 0 -58 8 -58 65 0 60 5 65 65 62 l40 -2 3 -54z m136 53 c19 -7 22
-94 4 -112 -13 -13 -66 -16 -84 -4 -18 11 -26 66 -15 95 9 22 17 27 45 27 19
0 41 -3 50 -6z m154 -53 c3 -59 -5 -71 -50 -71 -51 0 -58 8 -58 65 0 60 5 65
65 62 l40 -2 3 -54z m140 47 c7 -7 12 -30 12 -53 0 -51 -13 -65 -62 -65 -41 0
-58 19 -58 65 0 46 17 65 58 65 21 0 43 -5 50 -12z m-12600 -160 c17 -17 15
-84 -4 -102 -18 -18 -56 -21 -85 -6 -15 8 -19 21 -19 59 0 26 3 51 7 54 11 12
88 8 101 -5z m150 -50 l3 -57 -35 -6 c-62 -12 -76 -1 -76 59 0 29 3 56 7 60 4
4 28 6 53 4 l45 -3 3 -57z m142 36 c6 -15 8 -42 4 -60 -7 -39 -39 -53 -83 -38
-22 8 -27 16 -29 53 -5 64 1 71 53 71 40 0 47 -3 55 -26z m145 -34 c0 -50 -2
-55 -26 -64 -14 -5 -38 -6 -53 -2 -24 6 -26 10 -26 60 0 29 3 56 7 60 4 4 28
6 53 4 l45 -3 0 -55z m11733 -2 c3 -55 2 -58 -24 -64 -15 -4 -39 -3 -53 2 -22
8 -27 16 -29 53 -5 66 1 73 55 69 l48 -3 3 -57z m147 2 c0 -50 -2 -55 -26 -64
-44 -15 -76 -1 -83 38 -4 18 -2 46 4 60 9 25 14 27 57 24 l48 -3 0 -55z m143
-2 c3 -50 1 -57 -18 -63 -12 -4 -37 -4 -56 0 -34 6 -34 7 -34 59 0 29 3 56 7
60 4 4 28 6 53 4 l45 -3 3 -57z m150 7 c4 -56 -12 -75 -59 -75 -38 0 -59 25
-59 69 0 50 15 63 70 59 l45 -3 3 -50z m-12463 -165 l0 -55 -52 -3 -53 -3 0
61 0 61 53 -3 52 -3 0 -55z m149 30 c3 -16 3 -44 -1 -60 -6 -30 -7 -31 -57
-28 l-51 3 -3 44 c-5 64 0 71 56 71 47 0 50 -2 56 -30z m141 -30 l0 -55 -52
-3 -53 -3 0 54 c0 29 3 57 7 61 4 4 28 6 53 4 l45 -3 0 -55z m11733 -3 l3 -58
-53 3 -53 3 -3 44 c-5 66 1 73 55 69 l48 -3 3 -58z m147 3 l0 -55 -51 -3 c-50
-3 -51 -2 -57 28 -4 16 -4 44 0 60 6 30 7 31 57 28 l51 -3 0 -55z m145 -1 l0
-60 -52 3 -53 3 -3 44 c-5 65 0 71 58 71 l50 0 0 -61z m-12166 -129 c3 -16 3
-44 -1 -60 -6 -30 -7 -31 -57 -28 l-51 3 -3 44 c-5 64 0 71 56 71 47 0 50 -2
56 -30z m141 -30 l0 -55 -50 0 -50 0 -3 58 -3 58 53 -3 53 -3 0 -55z m11733 3
l-3 -58 -50 0 -50 0 -3 44 c-5 65 0 71 58 71 l51 0 -3 -57z m147 -3 l0 -55
-51 -3 c-50 -3 -51 -2 -57 28 -4 16 -4 44 0 60 6 30 7 31 57 28 l51 -3 0 -55z
m-12021 -180 c3 -16 3 -44 -1 -60 -6 -30 -7 -31 -57 -28 l-51 3 -3 44 c-5 64
0 71 56 71 47 0 50 -2 56 -30z m141 -30 l0 -55 -52 -3 -53 -3 0 61 0 61 53 -3
52 -3 0 -55z m11735 -1 l0 -60 -52 3 -53 3 -3 44 c-5 65 0 71 58 71 l50 0 0
-61z m145 1 l0 -55 -51 -3 c-50 -3 -51 -2 -57 28 -4 16 -4 44 0 60 6 30 7 31
57 28 l51 -3 0 -55z m-12170 -160 l0 -55 -50 0 -50 0 -3 58 -3 58 53 -3 53 -3
0 -55z m149 26 c4 -18 2 -46 -4 -60 -9 -25 -14 -27 -57 -24 l-48 3 -3 44 c-5
64 0 71 57 71 48 0 49 -1 55 -34z m141 -26 l0 -55 -50 0 -50 0 -3 58 -3 58 53
-3 53 -3 0 -55z m11733 3 l-3 -58 -50 0 -50 0 -3 44 c-5 65 0 71 58 71 l51 0
-3 -57z m147 -3 l0 -55 -48 -3 c-43 -3 -48 -1 -57 24 -6 14 -8 42 -4 61 6 34
6 34 58 31 l51 -3 0 -55z m143 3 l-3 -58 -50 0 -50 0 -3 44 c-5 65 0 71 58 71
l51 0 -3 -57z m-12464 -109 c18 -18 21 -66 6 -95 -11 -19 -60 -26 -94 -13 -24
9 -22 99 2 113 26 15 69 13 86 -5z m134 10 c21 -6 23 -11 20 -63 l-3 -56 -50
0 -50 0 -3 54 c-4 68 16 83 86 65z m151 -3 c15 -10 20 -88 7 -109 -8 -13 -63
-16 -90 -6 -24 9 -22 99 2 113 21 13 62 14 81 2z m142 -1 c15 -8 19 -21 19
-60 0 -44 -3 -50 -24 -56 -13 -3 -37 -4 -52 -2 -28 3 -29 6 -32 57 -2 37 1 57
10 62 18 12 56 11 79 -1z m11737 1 c9 -5 12 -25 10 -62 -3 -51 -4 -54 -32 -57
-15 -2 -39 -1 -52 2 -21 6 -24 12 -24 56 0 36 5 52 18 59 21 13 62 14 80 2z
m143 -1 c25 -14 28 -104 3 -114 -27 -10 -82 -7 -90 6 -13 21 -8 99 7 109 19
12 56 11 80 -1z m147 1 c9 -5 12 -25 10 -62 l-3 -54 -50 0 -50 0 -3 57 c-2 47
0 57 15 61 30 8 67 7 81 -2z m143 -1 c15 -8 19 -21 19 -59 0 -54 -8 -61 -65
-61 -39 0 -55 20 -55 69 0 52 50 78 101 51z m-12591 -169 c15 -29 12 -77 -6
-95 -18 -19 -75 -21 -92 -4 -16 16 -16 105 1 111 6 3 29 6 49 6 27 1 40 -4 48
-18z m134 13 c12 -5 16 -20 16 -59 0 -56 -8 -65 -55 -65 -47 0 -55 9 -55 64 0
29 3 56 7 59 8 9 66 9 87 1z m157 -21 c11 -29 3 -84 -15 -95 -18 -12 -71 -9
-84 4 -16 16 -16 105 1 111 6 3 29 6 50 6 32 1 39 -3 48 -26z m133 21 c12 -5
16 -20 16 -59 0 -56 -8 -65 -55 -65 -47 0 -55 9 -55 64 0 29 3 56 7 59 8 9 66
9 87 1z m11744 -53 c3 -59 -5 -71 -50 -71 -51 0 -58 8 -58 65 0 60 5 65 65 62
l40 -2 3 -54z m136 53 c19 -7 22 -94 4 -112 -13 -13 -66 -16 -84 -4 -18 11
-26 66 -15 95 9 22 17 27 45 27 19 0 41 -3 50 -6z m154 -53 c3 -59 -5 -71 -50
-71 -51 0 -58 8 -58 65 0 60 5 65 65 62 l40 -2 3 -54z m136 53 c19 -7 22 -94
4 -112 -17 -17 -74 -15 -92 4 -18 18 -21 66 -6 95 11 19 60 26 94 13z m-12596
-166 c9 -9 12 -98 12 -339 0 -284 -2 -330 -16 -343 -18 -19 -75 -21 -92 -4 -9
9 -12 100 -12 348 0 185 3 340 7 343 11 12 88 8 101 -5z m150 -337 c2 -370 4
-361 -50 -361 -61 0 -58 -20 -58 354 0 189 3 346 7 350 4 4 28 6 53 4 l45 -3
3 -344z m143 322 c6 -17 9 -144 7 -345 -3 -349 -1 -338 -63 -338 -17 0 -36 5
-43 12 -9 9 -12 100 -12 348 0 185 3 340 7 343 3 4 26 7 50 7 38 0 45 -3 54
-27z m147 -317 c2 -242 -1 -343 -9 -352 -12 -14 -56 -19 -83 -8 -14 5 -16 46
-16 348 0 189 3 346 7 350 4 4 28 6 53 4 l45 -3 3 -339z m11730 -5 c2 -269 -1
-346 -10 -353 -20 -12 -72 -10 -86 4 -9 9 -12 100 -12 348 0 185 3 340 7 344
4 4 28 6 53 4 l45 -3 3 -344z m150 5 c2 -242 -1 -343 -9 -352 -6 -8 -26 -14
-43 -14 -63 0 -61 -12 -64 338 -2 205 1 328 7 346 10 25 15 27 58 24 l48 -3 3
-339z m140 -5 c2 -370 4 -361 -50 -361 -61 0 -58 -20 -58 354 0 189 3 346 7
350 4 4 28 6 53 4 l45 -3 3 -344z m150 5 c2 -242 -1 -343 -9 -352 -16 -19 -74
-18 -93 2 -14 13 -16 59 -16 343 0 247 3 330 12 339 8 8 32 12 58 10 l45 -3 3
-339z m-12604 -412 c9 -23 7 -77 -3 -92 -5 -9 -25 -12 -57 -10 l-49 3 -3 44
c-5 64 0 71 57 71 35 0 51 -4 55 -16z m141 -44 l0 -55 -52 -3 -53 -3 0 54 c0
29 3 57 7 61 4 4 28 6 53 4 l45 -3 0 -55z m145 34 c6 -15 8 -42 4 -61 -6 -34
-6 -34 -58 -31 l-51 3 -3 44 c-5 64 1 71 53 71 40 0 47 -3 55 -26z m145 -34
l0 -55 -52 -3 -53 -3 0 54 c0 29 3 57 7 61 4 4 28 6 53 4 l45 -3 0 -55z
m11733 -3 l3 -58 -53 3 -53 3 -3 44 c-5 66 1 73 55 69 l48 -3 3 -58z m147 3
l0 -55 -51 -3 c-52 -3 -52 -3 -58 31 -4 19 -2 47 4 61 9 25 14 27 57 24 l48
-3 0 -55z m143 -3 l3 -58 -53 3 -53 3 -3 44 c-5 66 1 73 55 69 l48 -3 3 -58z
m147 3 l0 -55 -49 -3 c-55 -4 -66 5 -66 55 0 57 7 64 64 61 l51 -3 0 -55z
m-12601 -116 c9 -23 7 -77 -3 -92 -5 -9 -25 -12 -57 -10 l-49 3 -3 44 c-5 64
0 71 57 71 35 0 51 -4 55 -16z m141 -44 l0 -55 -52 -3 -53 -3 0 61 0 61 53 -3
52 -3 0 -55z m149 30 c3 -16 3 -44 -1 -60 -6 -30 -7 -31 -57 -28 l-51 3 -3 44
c-5 64 0 71 56 71 47 0 50 -2 56 -30z m141 -30 l0 -55 -52 -3 -53 -3 0 61 0
61 53 -3 52 -3 0 -55z m11735 -1 l0 -60 -52 3 -53 3 -3 44 c-5 65 0 71 58 71
l50 0 0 -61z m145 1 l0 -55 -51 -3 c-50 -3 -51 -2 -57 28 -4 16 -4 44 0 60 6
30 7 31 57 28 l51 -3 0 -55z m145 -1 l0 -60 -52 3 -53 3 -3 44 c-5 65 0 71 58
71 l50 0 0 -61z m145 1 l0 -55 -49 -3 c-55 -4 -66 5 -66 55 0 57 7 64 64 61
l51 -3 0 -55z m-12460 -160 l0 -55 -50 0 -50 0 -3 58 -3 58 53 -3 53 -3 0 -55z
m149 26 c4 -18 2 -46 -4 -60 -9 -25 -14 -27 -57 -24 l-48 3 -3 44 c-5 64 0 71
57 71 48 0 49 -1 55 -34z m141 -26 l0 -55 -50 0 -50 0 -3 58 -3 58 53 -3 53
-3 0 -55z m11733 3 l-3 -58 -50 0 -50 0 -3 44 c-5 65 0 71 58 71 l51 0 -3 -57z
m147 -3 l0 -55 -48 -3 c-43 -3 -48 -1 -57 24 -6 14 -8 42 -4 61 6 34 6 34 58
31 l51 -3 0 -55z m143 3 l-3 -58 -50 0 -50 0 -3 44 c-5 65 0 71 58 71 l51 0
-3 -57z m-12182 -101 c18 -11 26 -66 15 -95 -9 -22 -17 -27 -45 -27 -58 0 -66
7 -66 59 0 26 5 52 12 59 13 13 66 16 84 4z m152 -4 c7 -7 12 -34 12 -60 0
-42 -3 -48 -24 -54 -13 -3 -37 -4 -52 -2 -28 3 -29 6 -32 57 -2 37 1 57 10 62
19 13 72 11 86 -3z m11730 3 c9 -5 12 -25 10 -62 -3 -51 -4 -54 -32 -57 -15
-2 -39 -1 -52 2 -21 6 -24 12 -24 54 0 26 5 53 12 60 14 14 67 16 86 3z m150
-3 c7 -7 12 -33 12 -59 0 -52 -8 -59 -66 -59 -28 0 -36 5 -45 27 -11 29 -3 84
15 95 18 12 71 9 84 -4z m-12014 -242 c4 -18 2 -46 -4 -60 -9 -25 -14 -27 -57
-24 l-48 3 -3 44 c-5 64 0 71 57 71 48 0 49 -1 55 -34z m141 -26 l0 -55 -50 0
-50 0 -3 58 -3 58 53 -3 53 -3 0 -55z m11733 3 l-3 -58 -50 0 -50 0 -3 44 c-5
65 0 71 58 71 l51 0 -3 -57z m147 -3 l0 -55 -48 -3 c-43 -3 -48 -1 -57 24 -6
14 -8 42 -4 61 6 34 6 34 58 31 l51 -3 0 -55z m-12181 -96 c12 -5 16 -20 16
-59 0 -56 -8 -65 -55 -65 -47 0 -55 9 -55 64 0 29 3 56 7 59 8 9 66 9 87 1z
m157 -21 c11 -29 3 -84 -15 -95 -18 -12 -71 -9 -84 4 -16 16 -16 105 1 111 6
3 29 6 50 6 32 1 39 -3 48 -26z m133 21 c12 -5 16 -20 16 -59 0 -56 -8 -65
-55 -65 -47 0 -55 9 -55 64 0 29 3 56 7 59 8 9 66 9 87 1z m11744 -53 c3 -59
-5 -71 -50 -71 -51 0 -58 8 -58 65 0 60 5 65 65 62 l40 -2 3 -54z m136 53 c19
-7 22 -94 4 -112 -13 -13 -66 -16 -84 -4 -18 11 -26 66 -15 95 9 22 17 27 45
27 19 0 41 -3 50 -6z m154 -53 c3 -59 -5 -71 -50 -71 -51 0 -58 8 -58 65 0 60
5 65 65 62 l40 -2 3 -54z m-12460 -113 c17 -17 15 -84 -4 -102 -18 -18 -56
-21 -85 -6 -15 8 -19 21 -19 59 0 26 3 51 7 54 11 12 88 8 101 -5z m150 -50
l3 -57 -35 -6 c-62 -12 -76 -1 -76 59 0 29 3 56 7 60 4 4 28 6 53 4 l45 -3 3
-57z m142 36 c6 -15 8 -42 4 -60 -7 -39 -39 -53 -83 -38 -22 8 -27 16 -29 53
-5 64 1 71 53 71 40 0 47 -3 55 -26z m145 -34 c0 -50 -2 -55 -26 -64 -14 -5
-38 -6 -53 -2 -24 6 -26 10 -26 60 0 29 3 56 7 60 4 4 28 6 53 4 l45 -3 0 -55z
m11733 -2 c3 -55 2 -58 -24 -64 -15 -4 -39 -3 -53 2 -22 8 -27 16 -29 53 -5
66 1 73 55 69 l48 -3 3 -57z m147 2 c0 -50 -2 -55 -26 -64 -44 -15 -76 -1 -83
38 -4 18 -2 46 4 60 9 25 14 27 57 24 l48 -3 0 -55z m143 -2 c3 -50 1 -57 -18
-63 -12 -4 -37 -4 -56 0 -34 6 -34 7 -34 59 0 29 3 56 7 60 4 4 28 6 53 4 l45
-3 3 -57z m150 7 c4 -56 -12 -75 -59 -75 -38 0 -59 25 -59 69 0 50 15 63 70
59 l45 -3 3 -50z m-12604 -121 c9 -23 7 -77 -3 -92 -5 -9 -25 -12 -57 -10
l-49 3 -3 44 c-5 64 0 71 57 71 35 0 51 -4 55 -16z m141 -44 l0 -55 -52 -3
-53 -3 0 54 c0 29 3 57 7 61 4 4 28 6 53 4 l45 -3 0 -55z m145 34 c6 -15 8
-42 4 -61 -6 -34 -6 -34 -58 -31 l-51 3 -3 44 c-5 64 1 71 53 71 40 0 47 -3
55 -26z m145 -34 l0 -55 -52 -3 -53 -3 0 54 c0 29 3 57 7 61 4 4 28 6 53 4
l45 -3 0 -55z m11733 -3 l3 -58 -53 3 -53 3 -3 44 c-5 66 1 73 55 69 l48 -3 3
-58z m147 3 l0 -55 -51 -3 c-52 -3 -52 -3 -58 31 -4 19 -2 47 4 61 9 25 14 27
57 24 l48 -3 0 -55z m143 -3 l3 -58 -53 3 -53 3 -3 44 c-5 66 1 73 55 69 l48
-3 3 -58z m147 3 l0 -55 -49 -3 c-55 -4 -66 5 -66 55 0 57 7 64 64 61 l51 -3
0 -55z m-12601 -116 c9 -24 7 -657 -3 -672 -5 -9 -25 -12 -57 -10 l-49 3 -3
335 c-1 184 0 341 3 347 7 20 101 17 109 -3z m141 -334 l0 -345 -52 -3 -53 -3
0 351 0 351 53 -3 52 -3 0 -345z m149 319 c8 -41 8 -597 0 -638 -7 -31 -8 -32
-58 -29 l-51 3 -3 335 c-1 184 0 341 3 347 3 8 23 13 53 13 47 0 50 -1 56 -31z
m141 -319 l0 -345 -52 -3 -53 -3 0 351 0 351 53 -3 52 -3 0 -345z m11735 -1
l0 -350 -52 3 -53 3 -3 335 c-1 184 0 341 3 347 3 8 24 13 55 13 l50 0 0 -351z
m145 1 l0 -345 -51 -3 c-50 -3 -51 -2 -58 29 -3 17 -6 161 -6 319 0 158 3 302
6 319 7 31 8 32 58 29 l51 -3 0 -345z m145 -1 l0 -350 -52 3 -53 3 -3 335 c-1
184 0 341 3 347 3 8 24 13 55 13 l50 0 0 -351z m145 1 l0 -345 -49 -3 c-32 -2
-52 1 -57 10 -10 15 -12 648 -3 673 5 12 18 15 58 13 l51 -3 0 -345z m-12601
-406 c11 -28 6 -81 -8 -93 -8 -7 -34 -11 -58 -9 l-43 3 -3 44 c-5 64 0 71 57
71 35 0 51 -4 55 -16z m141 -44 l0 -55 -50 0 -50 0 -3 58 -3 58 53 -3 53 -3 0
-55z m149 26 c4 -18 2 -46 -4 -60 -9 -25 -14 -27 -57 -24 l-48 3 -3 44 c-5 64
0 71 57 71 48 0 49 -1 55 -34z m141 -26 l0 -55 -50 0 -50 0 -3 58 -3 58 53 -3
53 -3 0 -55z m11733 3 l-3 -58 -50 0 -50 0 -3 44 c-5 65 0 71 58 71 l51 0 -3
-57z m147 -3 l0 -55 -48 -3 c-43 -3 -48 -1 -57 24 -6 14 -8 42 -4 61 6 34 6
34 58 31 l51 -3 0 -55z m143 3 l-3 -58 -50 0 -50 0 -3 44 c-5 65 0 71 58 71
l51 0 -3 -57z m147 -3 l0 -55 -43 -3 c-53 -4 -72 10 -72 53 0 59 7 66 64 63
l51 -3 0 -55z m-12611 -106 c19 -18 21 -85 4 -102 -13 -13 -66 -16 -92 -6 -19
7 -22 94 -4 112 17 17 74 15 92 -4z m144 7 c9 -5 12 -25 10 -62 l-3 -54 -50 0
-50 0 -3 54 c-3 60 5 71 53 71 17 0 36 -4 43 -9z m138 1 c18 -11 26 -66 14
-96 -9 -25 -14 -27 -57 -24 l-48 3 -3 48 c-2 27 2 55 9 63 12 15 66 19 85 6z
m153 -6 c7 -8 11 -36 9 -63 l-3 -48 -50 0 -50 0 -3 54 c-2 37 1 57 10 62 21
14 75 10 87 -5z m11729 5 c9 -5 12 -25 10 -62 l-3 -54 -50 0 -50 0 -3 48 c-2
27 2 55 9 63 12 15 66 19 87 5z m150 -3 c7 -7 12 -33 12 -59 0 -52 -8 -59 -66
-59 -28 0 -36 5 -45 27 -11 29 -3 84 15 95 18 12 71 9 84 -4z m140 3 c9 -5 12
-25 10 -62 l-3 -54 -50 0 -50 0 -3 54 c-3 60 5 71 53 71 17 0 36 -4 43 -9z
m150 -3 c18 -18 15 -105 -4 -112 -26 -10 -79 -7 -92 6 -17 17 -15 84 4 102 18
19 75 21 92 4z m-12464 -154 c12 -5 16 -20 16 -59 0 -56 -8 -65 -55 -65 -47 0
-55 9 -55 64 0 29 3 56 7 59 8 9 66 9 87 1z m153 -11 c13 -32 8 -94 -7 -103
-21 -14 -74 -12 -88 2 -16 16 -16 105 1 111 6 3 29 6 50 6 27 1 40 -4 44 -16z
m137 11 c12 -5 16 -20 16 -59 0 -56 -8 -65 -55 -65 -47 0 -55 9 -55 64 0 29 3
56 7 59 8 9 66 9 87 1z m11744 -53 c3 -59 -5 -71 -50 -71 -51 0 -58 8 -58 65
0 60 5 65 65 62 l40 -2 3 -54z m136 53 c19 -7 22 -94 4 -112 -14 -14 -67 -16
-88 -2 -15 9 -20 71 -7 103 7 17 58 24 91 11z m154 -53 c3 -59 -5 -71 -50 -71
-51 0 -58 8 -58 65 0 60 5 65 65 62 l40 -2 3 -54z m-12168 -127 c6 -15 8 -42
4 -61 -6 -34 -6 -34 -58 -31 l-51 3 -3 44 c-5 64 1 71 53 71 40 0 47 -3 55
-26z m145 -34 l0 -55 -52 -3 -53 -3 0 54 c0 29 3 57 7 61 4 4 28 6 53 4 l45
-3 0 -55z m11733 -3 l3 -58 -53 3 -53 3 -3 44 c-5 66 1 73 55 69 l48 -3 3 -58z
m147 3 l0 -55 -51 -3 c-52 -3 -52 -3 -58 31 -4 19 -2 47 4 61 9 25 14 27 57
24 l48 -3 0 -55z m-12024 -177 c11 -29 3 -84 -15 -95 -18 -12 -71 -9 -84 4
-16 16 -16 105 1 111 6 3 29 6 50 6 32 1 39 -3 48 -26z m147 -26 c4 -57 -9
-77 -48 -77 -53 0 -60 8 -60 64 0 29 3 56 7 60 4 4 28 6 53 4 l45 -3 3 -48z
m11730 -6 c2 -37 -1 -57 -10 -62 -19 -13 -72 -11 -86 3 -13 13 -17 100 -5 112
4 4 28 6 53 4 l45 -3 3 -54z m136 53 c19 -7 22 -94 4 -112 -13 -13 -66 -16
-84 -4 -18 11 -26 66 -15 95 9 22 17 27 45 27 19 0 41 -3 50 -6z m-12159 -214
l0 -55 -52 -3 -53 -3 0 54 c0 29 3 57 7 61 4 4 28 6 53 4 l45 -3 0 -55z m145
34 c6 -15 8 -42 4 -61 -6 -34 -6 -34 -58 -31 l-51 3 -3 44 c-5 64 1 71 53 71
40 0 47 -3 55 -26z m145 -34 l0 -55 -52 -3 -53 -3 0 54 c0 29 3 57 7 61 4 4
28 6 53 4 l45 -3 0 -55z m11733 -3 l3 -58 -53 3 -53 3 -3 44 c-5 66 1 73 55
69 l48 -3 3 -58z m147 3 l0 -55 -51 -3 c-52 -3 -52 -3 -58 31 -4 19 -2 47 4
61 9 25 14 27 57 24 l48 -3 0 -55z m143 -3 l3 -58 -53 3 -53 3 -3 44 c-5 66 1
73 55 69 l48 -3 3 -58z m-12454 -113 c9 -23 7 -77 -3 -92 -5 -9 -25 -12 -57
-10 l-49 3 -3 44 c-5 64 0 71 57 71 35 0 51 -4 55 -16z m141 -44 l0 -55 -52
-3 -53 -3 0 61 0 61 53 -3 52 -3 0 -55z m149 30 c3 -16 3 -44 -1 -60 -6 -30
-7 -31 -57 -28 l-51 3 -3 44 c-5 64 0 71 56 71 47 0 50 -2 56 -30z m141 -30
l0 -55 -52 -3 -53 -3 0 61 0 61 53 -3 52 -3 0 -55z m11735 -1 l0 -60 -52 3
-53 3 -3 44 c-5 65 0 71 58 71 l50 0 0 -61z m145 1 l0 -55 -51 -3 c-50 -3 -51
-2 -57 28 -4 16 -4 44 0 60 6 30 7 31 57 28 l51 -3 0 -55z m145 -1 l0 -60 -52
3 -53 3 -3 44 c-5 65 0 71 58 71 l50 0 0 -61z m145 1 l0 -55 -49 -3 c-55 -4
-66 5 -66 55 0 57 7 64 64 61 l51 -3 0 -55z m-12601 -116 c11 -28 6 -81 -8
-93 -8 -7 -34 -11 -58 -9 l-43 3 -3 44 c-5 64 0 71 57 71 35 0 51 -4 55 -16z
m141 -44 l0 -55 -50 0 -50 0 -3 58 -3 58 53 -3 53 -3 0 -55z m149 26 c4 -18 2
-46 -4 -60 -9 -25 -14 -27 -57 -24 l-48 3 -3 44 c-5 64 0 71 57 71 48 0 49 -1
55 -34z m141 -26 l0 -55 -50 0 -50 0 -3 58 -3 58 53 -3 53 -3 0 -55z m11733 3
l-3 -58 -50 0 -50 0 -3 44 c-5 65 0 71 58 71 l51 0 -3 -57z m147 -3 l0 -55
-48 -3 c-43 -3 -48 -1 -57 24 -6 14 -8 42 -4 61 6 34 6 34 58 31 l51 -3 0 -55z
m143 3 l-3 -58 -50 0 -50 0 -3 44 c-5 65 0 71 58 71 l51 0 -3 -57z m147 -3 l0
-55 -43 -3 c-53 -4 -72 10 -72 53 0 59 7 66 64 63 l51 -3 0 -55z m-12611 -106
c14 -13 16 -59 16 -343 0 -368 3 -354 -72 -349 l-43 3 -3 339 c-2 242 1 343 9
352 16 19 74 18 93 -2z m144 8 c9 -7 12 -84 10 -353 l-3 -344 -50 0 -50 0 -3
344 c-2 373 -4 361 53 361 17 0 36 -4 43 -8z m142 -2 c13 -8 15 -58 18 -328 2
-205 -1 -328 -7 -346 -10 -25 -15 -27 -58 -24 l-48 3 -3 339 c-2 242 1 343 9
352 13 16 67 18 89 4z m149 -4 c8 -9 11 -110 9 -352 l-3 -339 -50 0 -50 0 -3
344 c-2 269 1 346 10 353 21 13 75 9 87 -6z m11729 6 c9 -7 12 -84 10 -353
l-3 -344 -50 0 -50 0 -3 339 c-2 242 1 343 9 352 12 15 66 19 87 6z m151 -6
c8 -9 11 -110 9 -352 l-3 -339 -48 -3 c-43 -3 -48 -1 -58 24 -6 18 -9 141 -7
346 3 350 1 338 64 338 17 0 37 -6 43 -14z m139 6 c9 -7 12 -84 10 -353 l-3
-344 -50 0 -50 0 -3 344 c-2 373 -4 361 53 361 17 0 36 -4 43 -8z m151 -6 c8
-9 11 -110 9 -352 l-3 -339 -43 -3 c-75 -5 -72 -19 -72 349 0 284 2 330 16
343 19 20 77 21 93 2z m-12599 -745 c13 -25 13 -67 0 -92 -12 -22 -78 -27 -98
-7 -16 16 -16 90 0 106 20 20 86 15 98 -7z m134 13 c12 -5 16 -20 16 -60 0
-48 -2 -54 -24 -60 -13 -3 -37 -4 -52 -2 -28 3 -29 6 -32 57 -2 37 1 57 10 62
15 10 60 12 82 3z m142 -2 c18 -11 26 -66 15 -95 -9 -22 -17 -27 -45 -27 -58
0 -66 7 -66 59 0 26 5 52 12 59 13 13 66 16 84 4z m148 2 c12 -5 16 -20 16
-60 0 -48 -2 -54 -24 -60 -13 -3 -37 -4 -52 -2 -28 3 -29 6 -32 57 -2 37 1 57
10 62 15 10 60 12 82 3z m11734 -3 c9 -5 12 -25 10 -62 -3 -51 -4 -54 -32 -57
-15 -2 -39 -1 -52 2 -22 6 -24 12 -24 60 0 34 5 56 13 59 20 9 71 7 85 -2z
m150 -3 c7 -7 12 -33 12 -59 0 -52 -8 -59 -66 -59 -28 0 -36 5 -45 27 -11 29
-3 84 15 95 18 12 71 9 84 -4z m140 3 c9 -5 12 -25 10 -62 -3 -51 -4 -54 -32
-57 -15 -2 -39 -1 -52 2 -22 6 -24 12 -24 60 0 34 5 56 13 59 20 9 71 7 85 -2z
m150 -3 c7 -7 12 -30 12 -53 0 -51 -13 -65 -62 -65 -41 0 -58 19 -58 65 0 46
17 65 58 65 21 0 43 -5 50 -12z m-12600 -160 c14 -14 16 -76 3 -96 -5 -9 -25
-12 -57 -10 l-49 3 -3 44 c-2 24 -1 50 2 57 7 18 87 19 104 2z m147 -48 l0
-55 -52 -3 -53 -3 0 54 c0 29 3 57 7 61 4 4 28 6 53 4 l45 -3 0 -55z m145 34
c6 -15 8 -42 4 -61 -6 -34 -6 -34 -58 -31 l-51 3 -3 44 c-5 64 1 71 53 71 40
0 47 -3 55 -26z m145 -34 l0 -55 -52 -3 -53 -3 0 54 c0 29 3 57 7 61 4 4 28 6
53 4 l45 -3 0 -55z m11733 -3 l3 -58 -53 3 -53 3 -3 44 c-5 66 1 73 55 69 l48
-3 3 -58z m147 3 l0 -55 -51 -3 c-52 -3 -52 -3 -58 31 -4 19 -2 47 4 61 9 25
14 27 57 24 l48 -3 0 -55z m143 -3 l3 -58 -53 3 -53 3 -3 44 c-5 66 1 73 55
69 l48 -3 3 -58z m147 3 l0 -55 -49 -3 c-56 -4 -66 5 -66 59 0 47 16 60 70 57
l45 -3 0 -55z m-12460 -160 l0 -55 -52 -3 -53 -3 0 54 c0 29 3 57 7 61 4 4 28
6 53 4 l45 -3 0 -55z m145 34 c6 -15 8 -42 4 -61 -6 -34 -6 -34 -58 -31 l-51
3 -3 44 c-5 64 1 71 53 71 40 0 47 -3 55 -26z m145 -34 l0 -55 -52 -3 -53 -3
0 54 c0 29 3 57 7 61 4 4 28 6 53 4 l45 -3 0 -55z m11733 -3 l3 -58 -53 3 -53
3 -3 44 c-5 66 1 73 55 69 l48 -3 3 -58z m147 3 l0 -55 -51 -3 c-52 -3 -52 -3
-58 31 -4 19 -2 47 4 61 9 25 14 27 57 24 l48 -3 0 -55z m143 -3 l3 -58 -53 3
-53 3 -3 44 c-5 66 1 73 55 69 l48 -3 3 -58z m-12164 -127 c3 -16 3 -44 -1
-60 -6 -30 -7 -31 -57 -28 l-51 3 -3 44 c-5 64 0 71 56 71 47 0 50 -2 56 -30z
m141 -30 l0 -55 -52 -3 -53 -3 0 61 0 61 53 -3 52 -3 0 -55z m11735 -1 l0 -60
-52 3 -53 3 -3 44 c-5 65 0 71 58 71 l50 0 0 -61z m145 1 l0 -55 -51 -3 c-50
-3 -51 -2 -57 28 -4 16 -4 44 0 60 6 30 7 31 57 28 l51 -3 0 -55z m-12021
-180 c3 -16 3 -44 -1 -60 -6 -30 -7 -31 -57 -28 l-51 3 -3 44 c-5 64 0 71 56
71 47 0 50 -2 56 -30z m141 -30 l0 -55 -52 -3 -53 -3 0 61 0 61 53 -3 52 -3 0
-55z m11735 -1 l0 -60 -52 3 -53 3 -3 44 c-5 65 0 71 58 71 l50 0 0 -61z m145
1 l0 -55 -51 -3 c-50 -3 -51 -2 -57 28 -4 16 -4 44 0 60 6 30 7 31 57 28 l51
-3 0 -55z m-12170 -160 l0 -55 -50 0 -50 0 -3 58 -3 58 53 -3 53 -3 0 -55z
m149 26 c4 -18 2 -46 -4 -60 -9 -25 -14 -27 -57 -24 l-48 3 -3 44 c-5 64 0 71
57 71 48 0 49 -1 55 -34z m141 -26 l0 -55 -50 0 -50 0 -3 58 -3 58 53 -3 53
-3 0 -55z m11733 3 l-3 -58 -50 0 -50 0 -3 44 c-5 65 0 71 58 71 l51 0 -3 -57z
m147 -3 l0 -55 -48 -3 c-43 -3 -48 -1 -57 24 -6 14 -8 42 -4 61 6 34 6 34 58
31 l51 -3 0 -55z m143 3 l-3 -58 -50 0 -50 0 -3 44 c-5 65 0 71 58 71 l51 0
-3 -57z m-12464 -109 c20 -19 21 -87 2 -103 -8 -7 -34 -11 -58 -9 l-43 3 -3
48 c-2 27 2 55 9 63 15 19 74 18 93 -2z m144 7 c9 -5 12 -25 10 -62 l-3 -54
-50 0 -50 0 -3 54 c-3 60 5 71 53 71 17 0 36 -4 43 -9z m138 1 c18 -11 26 -66
14 -96 -9 -25 -14 -27 -57 -24 l-48 3 -3 48 c-2 27 2 55 9 63 12 15 66 19 85
6z m153 -6 c7 -8 11 -36 9 -63 l-3 -48 -50 0 -50 0 -3 54 c-2 37 1 57 10 62
21 14 75 10 87 -5z m11729 5 c9 -5 12 -25 10 -62 l-3 -54 -50 0 -50 0 -3 48
c-2 27 2 55 9 63 12 15 66 19 87 5z m151 -5 c7 -8 11 -36 9 -63 l-3 -48 -48
-3 c-43 -3 -48 -1 -57 24 -12 30 -4 85 14 96 19 13 73 9 85 -6z m139 5 c9 -5
12 -25 10 -62 l-3 -54 -50 0 -50 0 -3 54 c-3 60 5 71 53 71 17 0 36 -4 43 -9z
m151 -5 c7 -8 11 -36 9 -63 l-3 -48 -43 -3 c-24 -2 -50 2 -58 9 -19 16 -18 84
2 103 19 20 78 21 93 2z m-12599 -165 c15 -29 12 -77 -6 -95 -18 -19 -75 -21
-92 -4 -16 16 -16 105 1 111 6 3 29 6 49 6 27 1 40 -4 48 -18z m134 13 c12 -5
16 -20 16 -59 0 -56 -8 -65 -55 -65 -47 0 -55 9 -55 64 0 29 3 56 7 59 8 9 66
9 87 1z m153 -11 c13 -32 8 -94 -7 -103 -21 -14 -74 -12 -88 2 -16 16 -16 105
1 111 6 3 29 6 50 6 27 1 40 -4 44 -16z m137 11 c12 -5 16 -20 16 -59 0 -56
-8 -65 -55 -65 -47 0 -55 9 -55 64 0 29 3 56 7 59 8 9 66 9 87 1z m11744 -53
c3 -59 -5 -71 -50 -71 -51 0 -58 8 -58 65 0 60 5 65 65 62 l40 -2 3 -54z m136
53 c19 -7 22 -94 4 -112 -14 -14 -67 -16 -88 -2 -15 9 -20 71 -7 103 7 17 58
24 91 11z m154 -53 c3 -59 -5 -71 -50 -71 -51 0 -58 8 -58 65 0 60 5 65 65 62
l40 -2 3 -54z m136 53 c19 -7 22 -94 4 -112 -17 -17 -74 -15 -92 4 -18 18 -21
66 -6 95 11 19 60 26 94 13z m-12596 -166 c9 -9 12 -98 12 -339 0 -284 -2
-330 -16 -343 -18 -18 -56 -21 -85 -6 -18 10 -19 25 -19 349 0 186 3 341 7
344 11 12 88 8 101 -5z m150 -340 l2 -347 -34 -6 c-19 -4 -44 -4 -55 0 -21 6
-21 10 -21 349 0 188 3 346 7 350 4 4 28 6 53 4 l45 -3 3 -347z m143 325 c6
-17 9 -144 7 -345 -3 -270 -5 -320 -18 -328 -20 -13 -57 -12 -81 0 -18 10 -19
25 -19 349 0 186 3 341 7 344 3 4 26 7 50 7 38 0 45 -3 54 -27z m144 -323 l0
-345 -26 -9 c-14 -5 -38 -6 -53 -2 l-26 6 0 344 c0 188 3 346 7 350 4 4 28 6
53 4 l45 -3 0 -345z m11733 -2 l2 -348 -26 -6 c-15 -4 -39 -3 -53 2 l-26 9 -3
335 c-1 184 0 341 3 348 3 9 20 12 52 10 l48 -3 3 -347z m147 2 l0 -345 -26
-9 c-43 -15 -76 -1 -83 35 -10 52 -7 615 4 644 9 24 14 26 57 23 l48 -3 0
-345z m143 -2 c2 -344 2 -347 -19 -353 -11 -4 -36 -4 -55 0 l-34 6 0 343 c0
188 3 346 7 350 4 4 28 6 53 4 l45 -3 3 -347z m150 7 c3 -375 4 -365 -59 -365
-59 0 -59 0 -59 359 0 247 3 330 12 339 8 8 32 12 58 10 l45 -3 3 -340z
m-12610 -407 c14 -14 16 -76 3 -96 -5 -9 -25 -12 -57 -10 l-49 3 -3 44 c-2 24
-1 50 2 57 7 18 87 19 104 2z m147 -48 l0 -55 -52 -3 -53 -3 0 54 c0 29 3 57
7 61 4 4 28 6 53 4 l45 -3 0 -55z m145 34 c6 -15 8 -42 4 -61 -6 -34 -6 -34
-58 -31 l-51 3 -3 44 c-5 64 1 71 53 71 40 0 47 -3 55 -26z m145 -34 l0 -55
-52 -3 -53 -3 0 54 c0 29 3 57 7 61 4 4 28 6 53 4 l45 -3 0 -55z m11733 -3 l3
-58 -53 3 -53 3 -3 44 c-5 66 1 73 55 69 l48 -3 3 -58z m147 3 l0 -55 -51 -3
c-52 -3 -52 -3 -58 31 -4 19 -2 47 4 61 9 25 14 27 57 24 l48 -3 0 -55z m143
-3 l3 -58 -53 3 -53 3 -3 44 c-5 66 1 73 55 69 l48 -3 3 -58z m147 3 l0 -55
-49 -3 c-56 -4 -66 5 -66 59 0 47 16 60 70 57 l45 -3 0 -55z m-12601 -116 c9
-23 7 -77 -3 -92 -5 -9 -25 -12 -57 -10 l-49 3 -3 44 c-5 64 0 71 57 71 35 0
51 -4 55 -16z m141 -44 l0 -55 -52 -3 -53 -3 0 61 0 61 53 -3 52 -3 0 -55z
m149 30 c3 -16 3 -44 -1 -60 -6 -30 -7 -31 -57 -28 l-51 3 -3 44 c-5 64 0 71
56 71 47 0 50 -2 56 -30z m141 -30 l0 -55 -52 -3 -53 -3 0 61 0 61 53 -3 52
-3 0 -55z m11735 -1 l0 -60 -52 3 -53 3 -3 44 c-5 65 0 71 58 71 l50 0 0 -61z
m145 1 l0 -55 -51 -3 c-50 -3 -51 -2 -57 28 -4 16 -4 44 0 60 6 30 7 31 57 28
l51 -3 0 -55z m145 -1 l0 -60 -52 3 -53 3 -3 44 c-5 65 0 71 58 71 l50 0 0
-61z m145 1 l0 -55 -49 -3 c-55 -4 -66 5 -66 55 0 57 7 64 64 61 l51 -3 0 -55z
m-12460 -160 l0 -55 -50 0 -50 0 -3 58 -3 58 53 -3 53 -3 0 -55z m149 26 c4
-18 2 -46 -4 -60 -9 -25 -14 -27 -57 -24 l-48 3 -3 44 c-5 64 0 71 57 71 48 0
49 -1 55 -34z m141 -26 l0 -55 -50 0 -50 0 -3 58 -3 58 53 -3 53 -3 0 -55z
m11733 3 l-3 -58 -50 0 -50 0 -3 44 c-5 65 0 71 58 71 l51 0 -3 -57z m147 -3
l0 -55 -48 -3 c-43 -3 -48 -1 -57 24 -6 14 -8 42 -4 61 6 34 6 34 58 31 l51
-3 0 -55z m143 3 l-3 -58 -50 0 -50 0 -3 44 c-5 65 0 71 58 71 l51 0 -3 -57z
m-12182 -101 c18 -11 26 -66 14 -96 -9 -25 -14 -27 -57 -24 l-48 3 -3 50 c-3
38 1 52 14 62 19 14 62 17 80 5z m148 -5 c13 -10 17 -24 14 -62 l-3 -50 -50 0
-50 0 -3 54 c-2 37 1 57 10 62 20 13 62 11 82 -4z m11734 4 c9 -5 12 -25 10
-62 l-3 -54 -50 0 -50 0 -3 50 c-3 38 1 52 14 62 20 15 62 17 82 4z m146 -4
c13 -10 17 -24 14 -62 l-3 -50 -48 -3 c-43 -3 -48 -1 -57 24 -12 30 -4 85 14
96 18 12 61 9 80 -5z m-12014 -223 c11 -28 3 -75 -14 -86 -17 -12 -71 -9 -84
4 -13 13 -17 90 -5 101 3 4 26 7 50 7 38 0 45 -4 53 -26z m148 -22 c4 -51 -10
-72 -48 -72 -52 0 -60 8 -60 59 0 26 3 51 7 55 4 4 28 6 53 4 l45 -3 3 -43z
m11730 -6 c2 -32 -1 -52 -10 -57 -19 -13 -72 -11 -86 3 -13 13 -17 90 -5 102
4 4 28 6 53 4 l45 -3 3 -49z m150 6 c2 -24 -2 -50 -9 -58 -12 -15 -66 -19 -85
-6 -17 11 -25 58 -14 87 9 24 14 26 57 23 l48 -3 3 -43z m-12173 -157 l0 -50
-52 -3 -53 -3 0 56 0 56 53 -3 52 -3 0 -50z m148 28 c3 -16 3 -41 0 -56 -5
-27 -8 -28 -57 -25 l-51 3 -3 39 c-5 59 1 66 57 66 45 0 49 -2 54 -27z m142
-28 l0 -50 -52 -3 -53 -3 0 56 0 56 53 -3 52 -3 0 -50z m11735 -1 l0 -55 -52
3 -53 3 -3 39 c-5 59 1 66 58 66 l50 0 0 -56z m145 1 l0 -50 -51 -3 c-49 -3
-52 -2 -57 25 -3 15 -3 41 0 56 5 27 8 28 57 25 l51 -3 0 -50z m145 -1 l0 -55
-52 3 -53 3 -3 39 c-5 59 1 66 58 66 l50 0 0 -56z m-12462 -96 c17 -17 15 -74
-4 -92 -18 -18 -56 -21 -85 -6 -14 8 -19 21 -19 54 0 23 3 46 7 49 11 12 88 8
101 -5z m150 -45 l3 -52 -35 -6 c-60 -12 -76 0 -76 54 0 26 3 51 7 55 4 4 28
6 53 4 l45 -3 3 -52z m142 32 c5 -14 7 -39 3 -55 -6 -35 -40 -48 -82 -34 -21
8 -27 17 -29 48 -5 58 2 66 53 66 39 0 47 -3 55 -25z m145 -30 c0 -44 -3 -50
-26 -59 -14 -5 -38 -6 -53 -2 -24 6 -26 11 -26 55 0 26 3 51 7 55 4 4 28 6 53
4 l45 -3 0 -50z m11733 -2 c3 -50 2 -53 -24 -59 -15 -4 -39 -3 -53 2 -21 8
-27 17 -29 48 -5 60 1 68 55 64 l48 -3 3 -52z m147 2 c0 -44 -3 -50 -26 -59
-42 -14 -76 -1 -82 34 -4 16 -2 42 3 56 9 23 14 25 57 22 l48 -3 0 -50z m143
-2 c3 -45 0 -52 -18 -58 -12 -4 -37 -4 -56 0 -33 6 -34 7 -34 54 0 26 3 51 7
55 4 4 28 6 53 4 l45 -3 3 -52z m150 7 c4 -50 -13 -70 -59 -70 -37 0 -59 24
-59 64 0 44 17 57 70 54 l45 -3 3 -45z m-12604 -116 c9 -22 7 -67 -3 -82 -5
-9 -25 -12 -57 -10 l-49 3 -3 39 c-5 59 1 66 57 66 35 0 51 -4 55 -16z m141
-39 l0 -50 -50 0 -50 0 -3 53 -3 53 53 -3 53 -3 0 -50z m149 25 c3 -17 1 -42
-4 -56 -9 -23 -14 -25 -57 -22 -48 3 -48 3 -51 42 -5 59 1 66 56 66 47 0 50
-2 56 -30z m141 -25 l0 -50 -50 0 -50 0 -3 53 -3 53 53 -3 53 -3 0 -50z
m11733 3 l-3 -53 -50 0 -50 0 -3 39 c-5 59 1 66 58 66 l51 0 -3 -52z m147 -3
l0 -50 -48 -3 c-43 -3 -48 -1 -57 22 -5 14 -7 40 -3 56 6 30 7 31 57 28 l51
-3 0 -50z m143 3 l-3 -53 -50 0 -50 0 -3 39 c-5 59 1 66 58 66 l51 0 -3 -52z
m147 -3 l0 -50 -49 -3 c-54 -4 -66 5 -66 50 0 52 8 59 64 56 l51 -3 0 -50z
m-12607 -97 c9 -9 12 -76 12 -240 l0 -228 229 0 c257 0 254 1 249 -72 l-3 -43
-295 0 -295 0 -3 285 c-1 157 0 290 3 297 6 17 87 17 103 1z m150 -160 l2
-168 168 -2 167 -3 0 -50 0 -50 -222 -3 -223 -2 0 218 c0 120 3 222 7 226 4 4
28 6 53 4 l45 -3 3 -167z m142 146 c6 -14 10 -57 10 -95 l0 -69 78 0 c99 0
114 -10 110 -70 l-3 -45 -150 0 -150 0 -3 140 c-1 76 0 145 2 152 3 8 23 13
51 13 40 0 47 -3 55 -26z m148 -1 c2 -14 11 -23 25 -25 19 -3 22 -9 22 -53 l0
-50 -77 -3 -78 -3 0 74 c0 40 3 77 7 81 4 4 28 6 53 4 38 -3 46 -7 48 -25z
m11730 -56 l3 -78 -78 3 -78 3 0 50 c0 44 3 50 23 53 13 2 22 10 22 21 0 27
10 32 60 29 l45 -3 3 -78z m147 -72 l0 -150 -150 0 -150 0 -3 45 c-4 60 11 70
110 70 l78 0 0 69 c0 38 4 81 10 96 9 24 14 26 57 23 l48 -3 0 -150z m143 -73
l2 -222 -222 2 -223 3 0 50 0 50 168 3 167 2 0 164 c0 89 3 166 7 170 4 4 28
6 53 4 l45 -3 3 -223z m147 -72 l0 -295 -295 0 -295 0 -3 43 c-5 73 -8 72 249
72 l229 0 0 228 c0 169 3 231 12 240 8 8 32 12 58 10 l45 -3 0 -295z m-11977
192 l3 -53 -53 3 -53 3 -3 39 c-5 60 1 68 55 64 l48 -3 3 -53z m147 3 l0 -50
-49 -3 c-55 -4 -66 5 -66 54 0 42 17 55 70 52 l45 -3 0 -50z m143 -2 l3 -53
-55 0 -56 0 0 48 c0 27 3 52 7 56 4 4 28 6 53 4 l45 -3 3 -52z m147 2 l0 -50
-49 -3 c-54 -4 -66 5 -66 50 0 52 8 59 64 56 l51 -3 0 -50z m205 30 c5 -14 7
-39 3 -55 -6 -31 -6 -31 -62 -28 l-56 3 -3 39 c-5 59 1 66 58 66 45 0 52 -3
60 -25z m158 -33 l3 -53 -58 3 -58 3 -3 39 c-5 61 1 67 60 64 l53 -3 3 -53z
m160 1 l3 -53 -60 0 -61 0 0 48 c0 27 3 52 7 56 4 4 30 6 58 4 l50 -3 3 -52z
m157 2 l0 -50 -57 -3 -58 -3 0 49 c0 27 3 52 7 56 4 4 30 6 58 4 l50 -3 0 -50z
m740 0 l0 -50 -344 -3 c-269 -2 -346 1 -353 10 -12 20 -10 72 4 86 9 9 96 12
353 10 l340 -3 0 -50z m161 31 c3 -13 4 -37 2 -52 -3 -28 -4 -29 -63 -29 -59
0 -60 1 -63 29 -2 15 -1 39 2 52 6 22 12 24 61 24 49 0 55 -2 61 -24z m158 -7
c5 -14 6 -38 2 -53 -6 -26 -9 -27 -64 -24 l-57 3 -3 39 c-5 61 1 67 60 64 46
-3 54 -6 62 -29z m154 -27 l3 -53 -58 3 -58 3 -3 39 c-5 61 1 67 60 64 l53 -3
3 -53z m160 1 l3 -53 -60 0 -61 0 0 48 c0 27 3 52 7 56 4 4 30 6 58 4 l50 -3
3 -52z m210 0 l3 -53 -60 0 -61 0 0 48 c0 27 3 52 7 56 4 4 30 6 58 4 l50 -3
3 -52z m157 2 l0 -50 -57 -3 -58 -3 0 49 c0 27 3 52 7 56 4 4 30 6 58 4 l50
-3 0 -50z m160 0 l0 -50 -54 -3 c-58 -3 -71 5 -71 46 0 49 17 63 73 60 l52 -3
0 -50z m159 39 c9 -22 7 -67 -3 -82 -5 -9 -25 -12 -62 -10 -51 3 -54 4 -57 32
-2 15 -1 39 2 52 6 22 12 24 60 24 40 0 55 -4 60 -16z m734 4 c14 -14 16 -66
4 -86 -7 -9 -84 -12 -353 -10 l-344 3 -3 39 c-6 70 -28 66 346 66 249 0 341
-3 350 -12z m160 -46 l3 -53 -58 3 -58 3 -3 39 c-5 61 1 67 60 64 l53 -3 3
-53z m160 1 l3 -53 -60 0 -61 0 0 48 c0 27 3 52 7 56 4 4 30 6 58 4 l50 -3 3
-52z m157 2 l0 -50 -57 -3 -58 -3 0 49 c0 27 3 52 7 56 4 4 30 6 58 4 l50 -3
0 -50z m161 31 c3 -13 4 -37 2 -52 -3 -28 -6 -29 -57 -32 -60 -3 -71 4 -71 54
0 42 16 54 72 54 42 0 48 -3 54 -24z m209 -31 l0 -50 -57 -3 -58 -3 0 49 c0
27 3 52 7 56 4 4 30 6 58 4 l50 -3 0 -50z m161 31 c3 -13 4 -37 2 -52 -3 -28
-6 -29 -57 -32 -59 -3 -71 5 -71 50 0 51 8 58 66 58 48 0 54 -2 60 -24z m158
-7 c5 -14 6 -38 2 -53 -6 -26 -9 -27 -64 -24 l-57 3 -3 39 c-5 61 1 67 60 64
46 -3 54 -6 62 -29z m154 -27 l3 -53 -58 3 -58 3 -3 39 c-5 61 1 67 60 64 l53
-3 3 -53z m740 1 l3 -53 -350 0 -351 0 0 48 c0 27 3 52 7 55 4 4 160 6 347 5
l341 -3 3 -52z m157 2 l0 -50 -57 -3 -58 -3 0 49 c0 27 3 52 7 56 4 4 30 6 58
4 l50 -3 0 -50z m160 0 l0 -50 -54 -3 c-58 -3 -71 5 -71 46 0 49 17 63 73 60
l52 -3 0 -50z m159 39 c9 -22 7 -67 -3 -82 -5 -9 -25 -12 -62 -10 -51 3 -54 4
-57 32 -2 15 -1 39 2 52 6 22 12 24 60 24 40 0 55 -4 60 -16z m154 -42 l3 -53
-58 3 -58 3 -3 39 c-5 61 1 67 60 64 l53 -3 3 -53z m210 46 c14 -14 16 -67 3
-86 -5 -9 -25 -12 -62 -10 -51 3 -54 4 -57 32 -2 15 -1 39 2 52 6 21 12 24 54
24 26 0 53 -5 60 -12z m160 -46 l3 -53 -58 3 -58 3 -3 39 c-5 61 1 67 60 64
l53 -3 3 -53z m160 1 l3 -53 -60 0 -61 0 0 48 c0 27 3 52 7 56 4 4 30 6 58 4
l50 -3 3 -52z m157 2 l0 -50 -57 -3 -58 -3 0 49 c0 27 3 52 7 56 4 4 30 6 58
4 l50 -3 0 -50z m740 0 l0 -50 -344 -3 c-269 -2 -346 1 -353 10 -12 20 -10 72
4 86 9 9 96 12 353 10 l340 -3 0 -50z m161 31 c3 -13 4 -37 2 -52 -3 -28 -6
-29 -57 -32 -59 -3 -71 5 -71 50 0 51 8 58 66 58 48 0 54 -2 60 -24z m158 -7
c5 -14 6 -38 2 -53 -6 -26 -9 -27 -64 -24 l-57 3 -3 39 c-5 61 1 67 60 64 46
-3 54 -6 62 -29z m154 -27 l3 -53 -58 3 -58 3 -3 39 c-5 61 1 67 60 64 l53 -3
3 -53z m160 1 l3 -53 -60 0 -61 0 0 48 c0 27 3 52 7 56 4 4 30 6 58 4 l50 -3
3 -52z m210 0 l3 -53 -60 0 -61 0 0 48 c0 27 3 52 7 56 4 4 30 6 58 4 l50 -3
3 -52z m157 2 l0 -50 -57 -3 -58 -3 0 49 c0 27 3 52 7 56 4 4 30 6 58 4 l50
-3 0 -50z m160 0 l0 -50 -54 -3 c-58 -3 -71 5 -71 46 0 49 17 63 73 60 l52 -3
0 -50z m161 31 c3 -13 4 -37 2 -52 -3 -28 -4 -29 -63 -29 -59 0 -60 1 -63 29
-2 15 -1 39 2 52 6 22 12 24 61 24 49 0 55 -2 61 -24z m732 12 c14 -14 16 -66
4 -86 -7 -9 -84 -12 -353 -10 l-344 3 -3 39 c-6 70 -28 66 346 66 249 0 341
-3 350 -12z m160 -46 l3 -53 -58 3 -58 3 -3 39 c-5 61 1 67 60 64 l53 -3 3
-53z m160 1 l3 -53 -60 0 -61 0 0 48 c0 27 3 52 7 56 4 4 30 6 58 4 l50 -3 3
-52z m157 2 l0 -50 -57 -3 -58 -3 0 49 c0 27 3 52 7 56 4 4 30 6 58 4 l50 -3
0 -50z m160 0 l0 -50 -57 -3 -57 -3 -6 34 c-4 20 -2 44 5 56 10 19 19 22 63
19 l52 -3 0 -50z m193 43 c14 -14 16 -67 3 -86 -5 -9 -25 -12 -57 -10 l-49 3
-3 39 c-2 21 -1 44 2 52 7 18 87 19 104 2z m150 -45 l3 -53 -55 0 -56 0 0 48
c0 27 3 52 7 56 4 4 28 6 53 4 l45 -3 3 -52z m140 45 c14 -14 16 -67 3 -86 -5
-9 -25 -12 -57 -10 l-49 3 -3 39 c-2 21 -1 44 2 52 7 18 87 19 104 2z m147
-43 l0 -50 -52 -3 -53 -3 0 49 c0 27 3 52 7 56 4 4 28 6 53 4 l45 -3 0 -50z
m-11357 -94 c9 -5 12 -25 10 -57 l-3 -49 -50 0 -50 0 -3 52 c-2 43 0 52 15 56
30 8 67 7 81 -2z m146 -4 c13 -10 17 -24 14 -57 l-3 -45 -43 -3 c-24 -2 -50 2
-58 9 -19 15 -18 74 2 93 19 19 64 21 88 3z m144 4 c9 -5 12 -25 10 -57 l-3
-49 -50 0 -50 0 -3 52 c-2 43 0 52 15 56 30 8 67 7 81 -2z m146 -4 c13 -10 17
-24 14 -57 l-3 -45 -43 -3 c-24 -2 -50 2 -58 9 -19 15 -18 74 2 93 19 19 64
21 88 3z m202 5 c17 -11 25 -58 14 -87 -9 -24 -14 -26 -62 -23 l-53 3 -3 45
c-3 33 1 47 14 57 19 14 72 17 90 5z m162 -1 c9 -5 12 -25 10 -57 l-3 -49 -55
0 -55 0 -3 52 c-2 43 0 52 15 56 31 8 77 7 91 -2z m160 0 c9 -5 12 -25 10 -57
l-3 -49 -55 0 -55 0 -3 49 c-4 56 5 66 58 66 19 0 41 -4 48 -9z m156 -4 c13
-10 17 -24 14 -57 l-3 -45 -55 0 -55 0 -3 49 c-2 32 1 52 10 57 20 13 72 11
92 -4z m740 0 c13 -10 17 -24 14 -57 l-3 -45 -339 -3 c-242 -2 -343 1 -352 9
-19 16 -18 74 2 93 13 14 58 16 338 16 247 0 326 -3 340 -13z m157 3 c22 -12
27 -78 7 -98 -16 -16 -90 -16 -106 0 -19 19 -15 85 6 97 22 13 68 14 93 1z
m163 -6 c19 -19 21 -64 3 -88 -10 -13 -24 -17 -62 -14 l-50 3 -3 45 c-3 33 1
47 14 57 24 18 79 16 98 -3z m154 7 c9 -5 12 -25 10 -57 l-3 -49 -55 0 -55 0
-3 52 c-2 43 0 52 15 56 31 8 77 7 91 -2z m160 0 c9 -5 12 -25 10 -57 l-3 -49
-55 0 -55 0 -3 49 c-4 56 5 66 58 66 19 0 41 -4 48 -9z m210 0 c9 -5 12 -25
10 -57 l-3 -49 -55 0 -55 0 -3 49 c-4 56 5 66 58 66 19 0 41 -4 48 -9z m150 3
c21 -6 23 -12 20 -58 l-3 -51 -55 0 -55 0 -3 49 c-4 63 22 79 96 60z m166 -7
c13 -10 17 -24 14 -57 l-3 -45 -50 -3 c-38 -3 -52 1 -62 14 -18 24 -16 69 3
88 19 19 74 21 98 3z m157 3 c22 -12 27 -78 7 -98 -18 -18 -105 -15 -112 4
-12 32 -6 83 12 93 22 13 68 14 93 1z m743 -6 c20 -19 21 -77 2 -93 -9 -8
-110 -11 -352 -9 l-339 3 -3 45 c-3 33 1 47 14 57 14 10 93 13 340 13 280 0
325 -2 338 -16z m154 7 c9 -5 12 -25 10 -57 l-3 -49 -55 0 -55 0 -3 45 c-3 33
1 47 14 57 20 15 72 17 92 4z m160 0 c9 -5 12 -25 10 -57 l-3 -49 -55 0 -55 0
-3 49 c-4 56 5 66 58 66 19 0 41 -4 48 -9z m156 -4 c13 -10 17 -24 14 -57 l-3
-45 -55 0 -55 0 -3 49 c-2 32 1 52 10 57 20 13 72 11 92 -4z m157 3 c19 -11
26 -60 13 -94 -7 -19 -94 -22 -112 -4 -17 17 -15 74 4 92 18 18 66 21 95 6z
m213 -3 c13 -10 17 -24 14 -57 l-3 -45 -55 0 -55 0 -3 49 c-2 32 1 52 10 57
20 13 72 11 92 -4z m157 3 c22 -12 27 -78 7 -98 -16 -16 -90 -16 -106 0 -19
19 -15 85 6 97 22 13 68 14 93 1z m163 -6 c19 -19 21 -64 3 -88 -10 -13 -24
-17 -62 -14 l-50 3 -3 45 c-3 33 1 47 14 57 24 18 79 16 98 -3z m154 7 c9 -5
12 -25 10 -57 l-3 -49 -55 0 -55 0 -3 52 c-2 43 0 52 15 56 31 8 77 7 91 -2z
m740 0 c9 -5 12 -25 10 -57 l-3 -49 -345 0 -345 0 -3 49 c-2 32 1 52 10 57 17
11 659 11 676 0z m150 3 c21 -6 23 -12 20 -58 l-3 -51 -55 0 -55 0 -3 49 c-4
63 22 79 96 60z m166 -7 c13 -10 17 -24 14 -57 l-3 -45 -50 -3 c-38 -3 -52 1
-62 14 -18 24 -16 69 3 88 19 19 74 21 98 3z m157 3 c22 -12 27 -78 7 -98 -16
-16 -90 -16 -106 0 -19 19 -15 85 6 97 22 13 68 14 93 1z m157 1 c9 -5 12 -25
10 -57 l-3 -49 -55 0 -55 0 -3 45 c-3 33 1 47 14 57 20 15 72 17 92 4z m216
-7 c19 -18 21 -75 4 -92 -18 -18 -105 -15 -112 4 -12 32 -6 83 12 93 26 16 79
13 96 -5z m154 7 c9 -5 12 -25 10 -57 l-3 -49 -55 0 -55 0 -3 45 c-3 33 1 47
14 57 20 15 72 17 92 4z m160 0 c9 -5 12 -25 10 -57 l-3 -49 -55 0 -55 0 -3
49 c-4 56 5 66 58 66 19 0 41 -4 48 -9z m156 -4 c13 -10 17 -24 14 -57 l-3
-45 -55 0 -55 0 -3 49 c-2 32 1 52 10 57 20 13 72 11 92 -4z m740 0 c13 -10
17 -24 14 -57 l-3 -45 -339 -3 c-242 -2 -343 1 -352 9 -19 16 -18 74 2 93 13
14 58 16 338 16 247 0 326 -3 340 -13z m157 3 c19 -11 26 -60 13 -94 -7 -19
-94 -22 -112 -4 -19 19 -15 85 6 97 22 13 68 14 93 1z m163 -6 c19 -19 21 -64
3 -88 -10 -13 -24 -17 -62 -14 l-50 3 -3 45 c-3 33 1 47 14 57 24 18 79 16 98
-3z m154 7 c9 -5 12 -25 10 -57 l-3 -49 -55 0 -55 0 -3 52 c-2 43 0 52 15 56
31 8 77 7 91 -2z m160 0 c9 -5 12 -25 10 -57 l-3 -49 -55 0 -55 0 -3 49 c-4
56 5 66 58 66 19 0 41 -4 48 -9z m210 0 c9 -5 12 -25 10 -57 l-3 -49 -55 0
-55 0 -3 49 c-4 56 5 66 58 66 19 0 41 -4 48 -9z m150 3 c21 -6 23 -12 20 -58
l-3 -51 -55 0 -55 0 -3 49 c-4 63 22 79 96 60z m166 -7 c13 -10 17 -24 14 -57
l-3 -45 -50 -3 c-38 -3 -52 1 -62 14 -18 24 -16 69 3 88 19 19 74 21 98 3z
m157 3 c22 -12 27 -78 7 -98 -16 -16 -90 -16 -106 0 -19 19 -15 85 6 97 22 13
68 14 93 1z m743 -6 c20 -19 21 -77 2 -93 -9 -8 -110 -11 -352 -9 l-339 3 -3
45 c-3 33 1 47 14 57 14 10 93 13 340 13 280 0 325 -2 338 -16z m154 7 c9 -5
12 -25 10 -57 l-3 -49 -55 0 -55 0 -3 45 c-3 33 1 47 14 57 20 15 72 17 92 4z
m160 0 c9 -5 12 -25 10 -57 l-3 -49 -55 0 -55 0 -3 49 c-4 56 5 66 58 66 19 0
41 -4 48 -9z m150 3 c21 -6 23 -12 20 -58 l-3 -51 -55 0 -55 0 -3 49 c-4 63
22 79 96 60z m166 -7 c13 -10 17 -24 14 -57 l-3 -45 -52 -3 c-44 -3 -53 0 -63
19 -14 25 -5 85 13 92 24 10 74 7 91 -6z m200 -3 c20 -19 21 -78 2 -93 -8 -7
-34 -11 -58 -9 l-43 3 -3 45 c-3 33 1 47 14 57 24 18 69 16 88 -3z m134 10
c21 -6 23 -12 20 -58 l-3 -51 -50 0 -50 0 -3 49 c-4 63 18 78 86 60z m156 -10
c20 -19 21 -78 2 -93 -8 -7 -34 -11 -58 -9 l-43 3 -3 45 c-3 33 1 47 14 57 24
18 69 16 88 -3z m134 10 c21 -6 23 -12 20 -58 l-3 -51 -50 0 -50 0 -3 49 c-4
63 18 78 86 60z m-11330 -202 l3 -53 -53 3 -53 3 -3 39 c-5 60 1 68 55 64 l48
-3 3 -53z m147 3 l0 -50 -49 -3 c-54 -4 -66 5 -66 50 0 52 8 59 64 56 l51 -3
0 -50z m143 -2 l3 -53 -55 0 -56 0 0 48 c0 27 3 52 7 56 4 4 28 6 53 4 l45 -3
3 -52z m510 -1 l3 -53 -58 3 -58 3 -3 39 c-5 61 1 67 60 64 l53 -3 3 -53z
m160 1 l3 -53 -60 0 -61 0 0 48 c0 27 3 52 7 56 4 4 30 6 58 4 l50 -3 3 -52z
m157 2 l0 -50 -57 -3 -58 -3 0 49 c0 27 3 52 7 56 4 4 30 6 58 4 l50 -3 0 -50z
m740 0 l0 -50 -344 -3 c-370 -2 -361 -4 -361 50 0 62 -21 59 359 56 l346 -3 0
-50z m161 31 c3 -13 4 -37 2 -52 -3 -28 -4 -29 -63 -29 -59 0 -60 1 -63 29 -2
15 -1 39 2 52 6 22 12 24 61 24 49 0 55 -2 61 -24z m159 -10 c4 -19 4 -44 0
-56 -6 -19 -13 -21 -63 -18 l-57 3 -3 39 c-5 60 1 66 62 66 55 0 55 0 61 -34z
m153 -24 l3 -53 -58 3 -58 3 -3 39 c-5 61 1 67 60 64 l53 -3 3 -53z m527 3 l0
-50 -57 -3 -58 -3 0 49 c0 27 3 52 7 56 4 4 30 6 58 4 l50 -3 0 -50z m160 0
l0 -50 -57 -3 c-50 -3 -57 -1 -63 18 -4 12 -4 37 0 56 l6 35 57 -3 57 -3 0
-50z m159 39 c9 -22 7 -67 -3 -82 -5 -9 -25 -12 -62 -10 -51 3 -54 4 -57 32
-2 15 -1 39 2 52 6 22 12 24 60 24 40 0 55 -4 60 -16z m740 0 c8 -22 7 -67 -2
-82 -7 -9 -84 -12 -353 -10 l-344 3 -3 39 c-6 70 -29 66 352 66 304 0 345 -2
350 -16z m154 -42 l3 -53 -58 3 -58 3 -3 39 c-5 61 1 67 60 64 l53 -3 3 -53z
m160 1 l3 -53 -60 0 -61 0 0 48 c0 27 3 52 7 56 4 4 30 6 58 4 l50 -3 3 -52z
m157 2 l0 -50 -57 -3 -58 -3 0 49 c0 27 3 52 7 56 4 4 30 6 58 4 l50 -3 0 -50z
m531 31 c3 -13 4 -37 2 -52 -3 -28 -6 -29 -57 -32 -59 -3 -71 5 -71 50 0 51 8
58 66 58 48 0 54 -2 60 -24z m159 -10 c4 -19 4 -44 0 -56 -6 -19 -13 -21 -63
-18 l-57 3 -3 39 c-5 60 1 66 62 66 55 0 55 0 61 -34z m153 -24 l3 -53 -58 3
-58 3 -3 39 c-5 61 1 67 60 64 l53 -3 3 -53z m740 1 l3 -53 -350 0 -351 0 0
48 c0 27 3 52 7 55 4 4 160 6 347 5 l341 -3 3 -52z m157 2 l0 -50 -57 -3 -58
-3 0 49 c0 27 3 52 7 56 4 4 30 6 58 4 l50 -3 0 -50z m160 0 l0 -50 -57 -3
c-50 -3 -57 -1 -63 18 -4 12 -4 37 0 56 l6 35 57 -3 57 -3 0 -50z m159 39 c9
-22 7 -67 -3 -82 -5 -9 -25 -12 -62 -10 -51 3 -54 4 -57 32 -2 15 -1 39 2 52
6 22 12 24 60 24 40 0 55 -4 60 -16z m524 -42 l3 -53 -58 3 -58 3 -3 39 c-5
61 1 67 60 64 l53 -3 3 -53z m160 1 l3 -53 -60 0 -61 0 0 48 c0 27 3 52 7 56
4 4 30 6 58 4 l50 -3 3 -52z m157 2 l0 -50 -57 -3 -58 -3 0 49 c0 27 3 52 7
56 4 4 30 6 58 4 l50 -3 0 -50z m740 0 l0 -50 -344 -3 c-370 -2 -361 -4 -361
50 0 62 -21 59 359 56 l346 -3 0 -50z m161 31 c3 -13 4 -37 2 -52 -3 -28 -6
-29 -57 -32 -59 -3 -71 5 -71 50 0 51 8 58 66 58 48 0 54 -2 60 -24z m159 -10
c4 -19 4 -44 0 -56 -6 -19 -13 -21 -63 -18 l-57 3 -3 39 c-5 60 1 66 62 66 55
0 55 0 61 -34z m153 -24 l3 -53 -58 3 -58 3 -3 39 c-5 61 1 67 60 64 l53 -3 3
-53z m527 3 l0 -50 -57 -3 -58 -3 0 49 c0 27 3 52 7 56 4 4 30 6 58 4 l50 -3
0 -50z m160 0 l0 -50 -57 -3 c-50 -3 -57 -1 -63 18 -4 12 -4 37 0 56 l6 35 57
-3 57 -3 0 -50z m161 31 c3 -13 4 -37 2 -52 -3 -28 -4 -29 -63 -29 -59 0 -60
1 -63 29 -2 15 -1 39 2 52 6 22 12 24 61 24 49 0 55 -2 61 -24z m738 8 c8 -22
7 -67 -2 -82 -7 -9 -84 -12 -353 -10 l-344 3 -3 39 c-6 70 -29 66 352 66 304
0 345 -2 350 -16z m154 -42 l3 -53 -58 3 -58 3 -3 39 c-5 61 1 67 60 64 l53
-3 3 -53z m160 1 l3 -53 -60 0 -61 0 0 48 c0 27 3 52 7 56 4 4 30 6 58 4 l50
-3 3 -52z m157 2 l0 -50 -57 -3 -58 -3 0 49 c0 27 3 52 7 56 4 4 30 6 58 4
l50 -3 0 -50z m503 -2 l3 -53 -55 0 -56 0 0 48 c0 27 3 52 7 56 4 4 28 6 53 4
l45 -3 3 -52z m146 41 c9 -22 7 -67 -3 -82 -5 -9 -25 -12 -57 -10 l-49 3 -3
39 c-5 59 1 66 57 66 35 0 51 -4 55 -16z m141 -39 l0 -50 -52 -3 -53 -3 0 49
c0 27 3 52 7 56 4 4 28 6 53 4 l45 -3 0 -50z m-11357 -94 c9 -5 12 -25 10 -57
l-3 -49 -50 0 -50 0 -3 49 c-2 32 1 52 10 57 17 11 69 11 86 0z m151 -5 c7 -8
11 -34 9 -58 l-3 -43 -43 -3 c-24 -2 -50 2 -58 9 -19 15 -18 74 2 93 19 20 78
21 93 2z m809 5 c9 -5 12 -25 10 -57 l-3 -49 -55 0 -55 0 -3 49 c-4 56 5 66
58 66 19 0 41 -4 48 -9z m161 -5 c7 -8 11 -34 9 -58 l-3 -43 -55 0 -55 0 -3
49 c-2 32 1 52 10 57 21 14 85 10 97 -5z m740 0 c7 -8 11 -34 9 -58 l-3 -43
-339 -3 c-242 -2 -343 1 -352 9 -19 16 -18 74 2 93 13 14 59 16 343 16 272 0
331 -2 340 -14z m152 4 c14 -8 19 -21 19 -48 0 -49 -14 -62 -65 -62 -23 0 -46
5 -53 12 -16 16 -16 80 0 96 15 15 72 16 99 2z m163 -6 c19 -19 21 -64 3 -88
-10 -13 -24 -17 -62 -14 l-50 3 -3 43 c-2 24 2 50 9 58 16 19 84 18 103 -2z
m844 4 c13 -13 16 -66 6 -92 -10 -25 -100 -22 -114 3 -15 29 -12 67 6 85 18
19 85 21 102 4z m153 2 c22 -12 27 -78 7 -98 -18 -18 -105 -15 -112 4 -10 26
-7 79 6 92 15 15 72 16 99 2z m743 -6 c20 -19 21 -77 2 -93 -9 -8 -110 -11
-352 -9 l-339 3 -3 43 c-5 75 -19 72 349 72 284 0 330 -2 343 -16z m154 7 c9
-5 12 -25 10 -57 l-3 -49 -55 0 -55 0 -3 43 c-2 24 2 50 9 58 12 15 76 19 97
5z m160 0 c9 -5 12 -25 10 -57 l-3 -49 -55 0 -55 0 -3 49 c-4 56 5 66 58 66
19 0 41 -4 48 -9z m846 -7 c19 -19 21 -64 3 -88 -10 -13 -24 -17 -62 -14 l-50
3 -3 43 c-2 24 2 50 9 58 16 19 84 18 103 -2z m154 7 c9 -5 12 -25 10 -57 l-3
-49 -55 0 -55 0 -3 49 c-4 56 5 66 58 66 19 0 41 -4 48 -9z m740 0 c9 -5 12
-25 10 -57 l-3 -49 -345 0 -345 0 -3 49 c-2 32 1 52 10 57 17 11 659 11 676 0z
m160 0 c9 -5 12 -25 10 -57 l-3 -49 -55 0 -55 0 -3 49 c-4 56 5 66 58 66 19 0
41 -4 48 -9z m161 -5 c7 -8 11 -34 9 -58 l-3 -43 -50 -3 c-38 -3 -52 1 -62 14
-18 24 -16 69 3 88 19 20 87 21 103 2z m839 5 c9 -5 12 -25 10 -57 l-3 -49
-55 0 -55 0 -3 49 c-4 56 5 66 58 66 19 0 41 -4 48 -9z m161 -5 c7 -8 11 -34
9 -58 l-3 -43 -55 0 -55 0 -3 49 c-2 32 1 52 10 57 21 14 85 10 97 -5z m740 0
c7 -8 11 -34 9 -58 l-3 -43 -339 -3 c-242 -2 -343 1 -352 9 -19 16 -18 74 2
93 13 14 59 16 343 16 272 0 331 -2 340 -14z m159 2 c13 -13 16 -66 6 -92 -7
-19 -94 -22 -112 -4 -19 19 -15 85 6 97 24 14 85 14 100 -1z m156 -4 c18 -18
21 -56 6 -85 -14 -25 -104 -28 -114 -3 -10 26 -7 79 6 92 17 17 84 15 102 -4z
m845 2 c7 -8 11 -34 9 -58 l-3 -43 -50 -3 c-38 -3 -52 1 -62 14 -18 24 -16 69
3 88 19 20 87 21 103 2z m159 2 c7 -7 12 -28 12 -48 0 -20 -5 -41 -12 -48 -16
-16 -90 -16 -106 0 -19 19 -15 85 6 97 24 14 85 14 100 -1z m736 -4 c20 -19
21 -77 2 -93 -9 -8 -110 -11 -352 -9 l-339 3 -3 43 c-5 75 -19 72 349 72 284
0 330 -2 343 -16z m154 7 c9 -5 12 -25 10 -57 l-3 -49 -55 0 -55 0 -3 43 c-2
24 2 50 9 58 12 15 76 19 97 5z m160 0 c9 -5 12 -25 10 -57 l-3 -49 -55 0 -55
0 -3 49 c-4 56 5 66 58 66 19 0 41 -4 48 -9z m806 -7 c20 -19 21 -78 2 -93 -8
-7 -34 -11 -58 -9 l-43 3 -3 43 c-2 24 2 50 9 58 15 19 74 18 93 -2z m144 7
c9 -5 12 -25 10 -57 l-3 -49 -50 0 -50 0 -3 49 c-2 32 1 52 10 57 17 11 69 11
86 0z"/>
</g>
</svg>
